{"glyphs":{"0":{"ha":1150,"x_min":89,"x_max":1061,"o":"m 782 142 l 782 0 l 367 0 l 367 142 l 226 142 l 226 278 l 89 278 l 89 697 l 226 697 l 226 833 l 367 833 l 367 278 l 506 278 l 506 142 l 782 142 m 1061 278 l 922 278 l 922 142 l 782 142 l 782 697 l 646 697 l 646 833 l 367 833 l 367 974 l 782 974 l 782 833 l 922 833 l 922 697 l 1061 697 l 1061 278 z "},"1":{"ha":1150,"x_min":158,"x_max":990,"o":"m 990 0 l 158 0 l 158 142 l 436 142 l 436 697 l 296 697 l 296 835 l 436 835 l 436 974 l 714 974 l 714 142 l 990 142 l 990 0 z "},"2":{"ha":1150,"x_min":89,"x_max":1061,"o":"m 1061 0 l 89 0 l 89 278 l 226 278 l 226 418 l 365 418 l 365 556 l 644 556 l 644 697 l 783 697 l 783 833 l 365 833 l 365 697 l 89 697 l 89 833 l 226 833 l 226 974 l 922 974 l 922 833 l 1061 833 l 1061 556 l 922 556 l 922 418 l 783 418 l 783 278 l 506 278 l 506 142 l 1061 142 l 1061 0 z "},"3":{"ha":1150,"x_min":89,"x_max":1061,"o":"m 1061 142 l 921 142 l 921 0 l 225 0 l 225 142 l 89 142 l 89 278 l 365 278 l 365 142 l 782 142 l 782 418 l 365 418 l 365 556 l 506 556 l 506 697 l 644 697 l 644 833 l 225 833 l 225 974 l 1061 974 l 1061 833 l 921 833 l 921 697 l 782 697 l 782 556 l 921 556 l 921 418 l 1061 418 l 1061 142 z "},"4":{"ha":1150,"x_min":89,"x_max":1061,"o":"m 1061 278 l 922 278 l 922 0 l 644 0 l 644 278 l 89 278 l 89 556 l 226 556 l 226 697 l 365 697 l 365 833 l 506 833 l 506 974 l 922 974 l 922 418 l 1061 418 l 1061 278 m 644 418 l 644 697 l 506 697 l 506 556 l 365 556 l 365 418 l 644 418 z "},"5":{"ha":1150,"x_min":88,"x_max":1061,"o":"m 1061 142 l 921 142 l 921 0 l 225 0 l 225 142 l 88 142 l 88 278 l 365 278 l 365 142 l 781 142 l 781 556 l 88 556 l 88 974 l 921 974 l 921 833 l 365 833 l 365 697 l 921 697 l 921 556 l 1061 556 l 1061 142 z "},"6":{"ha":1150,"x_min":89,"x_max":1061,"o":"m 1061 142 l 922 142 l 922 0 l 226 0 l 226 142 l 89 142 l 89 696 l 226 696 l 226 835 l 367 835 l 367 974 l 922 974 l 922 835 l 506 835 l 506 697 l 367 697 l 367 556 l 922 556 l 922 418 l 1061 418 l 1061 142 m 782 142 l 782 418 l 367 418 l 367 142 l 782 142 z "},"7":{"ha":1150,"x_min":89,"x_max":1061,"o":"m 1061 697 l 921 697 l 921 556 l 782 556 l 782 418 l 644 418 l 644 0 l 365 0 l 365 418 l 506 418 l 506 556 l 644 556 l 644 697 l 782 697 l 782 833 l 365 833 l 365 697 l 89 697 l 89 974 l 1061 974 l 1061 697 z "},"8":{"ha":1150,"x_min":89,"x_max":1061,"o":"m 226 556 l 89 556 l 89 833 l 226 833 l 226 974 l 782 974 l 782 833 l 922 833 l 922 556 l 782 556 l 782 833 l 365 833 l 365 697 l 506 697 l 506 556 l 782 556 l 782 418 l 1061 418 l 1061 142 l 922 142 l 922 0 l 226 0 l 226 142 l 89 142 l 89 418 l 226 418 l 226 556 m 226 142 l 782 142 l 782 278 l 506 278 l 506 418 l 226 418 l 226 142 z "},"9":{"ha":1150,"x_min":89,"x_max":1061,"o":"m 1061 278 l 922 278 l 922 139 l 783 139 l 783 0 l 228 0 l 228 139 l 644 139 l 644 276 l 783 276 l 783 418 l 228 418 l 228 556 l 89 556 l 89 833 l 228 833 l 228 974 l 922 974 l 922 833 l 1061 833 l 1061 278 m 783 556 l 783 833 l 367 833 l 367 556 l 783 556 z "},"\u0017":{"ha":1150,"x_min":0,"x_max":0,"o":""}," ":{"ha":1150,"x_min":0,"x_max":0,"o":""},"!":{"ha":1150,"x_min":228,"x_max":921,"o":"m 921 697 l 783 697 l 783 556 l 644 556 l 644 418 l 506 418 l 506 278 l 365 278 l 365 697 l 506 697 l 506 974 l 921 974 l 921 697 m 365 0 l 228 0 l 228 142 l 365 142 l 365 0 z "},"\"":{"ha":1150,"x_min":228,"x_max":921,"o":"m 921 556 l 781 556 l 781 697 l 644 697 l 644 974 l 921 974 l 921 556 m 781 415 l 644 415 l 644 556 l 781 556 l 781 415 m 504 556 l 364 556 l 364 697 l 228 697 l 228 974 l 504 974 l 504 556 m 364 415 l 228 415 l 228 556 l 364 556 l 364 415 z "},"#":{"ha":1150,"x_min":228,"x_max":921,"o":"m 921 281 l 782 281 l 782 142 l 643 142 l 643 281 l 504 281 l 504 142 l 364 142 l 364 281 l 228 281 l 228 418 l 364 418 l 364 558 l 228 558 l 228 697 l 364 697 l 364 835 l 504 835 l 504 697 l 643 697 l 643 835 l 782 835 l 782 697 l 921 697 l 921 558 l 782 558 l 782 418 l 921 418 l 921 281 m 643 418 l 643 558 l 504 558 l 504 418 l 643 418 z "},"$":{"ha":1150,"x_min":88,"x_max":1061,"o":"m 1061 278 l 921 278 l 921 142 l 644 142 l 644 0 l 504 0 l 504 142 l 225 142 l 225 278 l 644 278 l 644 418 l 225 418 l 225 556 l 88 556 l 88 697 l 225 697 l 225 833 l 504 833 l 504 974 l 644 974 l 644 833 l 921 833 l 921 697 l 504 697 l 504 556 l 921 556 l 921 418 l 1061 418 l 1061 278 z "},"%":{"ha":1150,"x_min":161,"x_max":988,"o":"m 988 840 l 851 840 l 851 982 l 988 982 l 988 840 m 851 700 l 713 700 l 713 840 l 851 840 l 851 700 m 713 558 l 574 558 l 574 700 l 713 700 l 713 558 m 438 700 l 182 700 l 182 976 l 438 976 l 438 700 m 972 142 l 717 142 l 717 418 l 972 418 l 972 142 m 574 418 l 438 418 l 438 558 l 574 558 l 574 418 m 438 276 l 299 276 l 299 418 l 438 418 l 438 276 m 299 138 l 161 138 l 161 276 l 299 276 l 299 138 z "},"&":{"ha":1150,"x_min":89,"x_max":1061,"o":"m 782 142 l 644 142 l 644 0 l 225 0 l 225 142 l 89 142 l 89 418 l 364 418 l 364 142 l 643 142 l 643 278 l 504 278 l 504 417 l 644 417 l 644 278 l 782 278 l 782 142 m 644 556 l 504 556 l 504 835 l 365 835 l 365 974 l 504 974 l 504 835 l 644 835 l 644 556 m 1061 0 l 782 0 l 782 139 l 1061 139 l 1061 0 m 364 556 l 225 556 l 225 833 l 364 833 l 364 556 m 921 278 l 782 278 l 782 417 l 921 417 l 921 278 m 504 418 l 365 418 l 365 556 l 504 556 l 504 418 z "},"'":{"ha":1150,"x_min":436,"x_max":713,"o":"m 713 556 l 572 556 l 572 697 l 436 697 l 436 974 l 713 974 l 713 556 m 572 415 l 436 415 l 436 556 l 572 556 l 572 415 z "},"(":{"ha":1150,"x_min":506,"x_max":922,"o":"m 922 -142 l 646 -142 l 646 0 l 506 0 l 506 974 l 646 974 l 646 1114 l 922 1114 l 922 974 l 785 974 l 785 0 l 922 0 l 922 -142 z "},")":{"ha":1150,"x_min":228,"x_max":644,"o":"m 228 0 l 365 0 l 365 974 l 228 974 l 228 1114 l 504 1114 l 504 974 l 644 974 l 644 0 l 504 0 l 504 -142 l 228 -142 l 228 0 z "},"*":{"ha":1150,"x_min":89,"x_max":1061,"o":"m 922 696 l 783 696 l 783 833 l 922 833 l 922 696 m 1061 418 l 782 418 l 782 278 l 644 278 l 644 0 l 506 0 l 506 278 l 365 278 l 365 418 l 89 418 l 89 556 l 365 556 l 365 697 l 506 697 l 506 974 l 644 974 l 644 697 l 782 697 l 782 556 l 1061 556 l 1061 418 m 922 140 l 783 140 l 783 278 l 922 278 l 922 140 m 364 696 l 226 696 l 226 833 l 364 833 l 364 696 m 364 140 l 226 140 l 226 278 l 364 278 l 364 140 z "},"+":{"ha":1150,"x_min":158,"x_max":990,"o":"m 990 418 l 713 418 l 713 142 l 436 142 l 436 418 l 158 418 l 158 556 l 436 556 l 436 833 l 713 833 l 713 556 l 990 556 l 990 418 z "},",":{"ha":1150,"x_min":436,"x_max":713,"o":"m 713 142 l 572 142 l 572 282 l 436 282 l 436 558 l 713 558 l 713 142 m 572 0 l 436 0 l 436 142 l 572 142 l 572 0 z "},"-":{"ha":1150,"x_min":226,"x_max":922,"o":"m 922 418 l 226 418 l 226 558 l 922 558 l 922 418 z "},".":{"ha":1150,"x_min":436,"x_max":713,"o":"m 713 0 l 436 0 l 436 278 l 713 278 l 713 0 z "},"/":{"ha":1150,"x_min":92,"x_max":1057,"o":"m 1057 844 l 919 844 l 919 986 l 1057 986 l 1057 844 m 919 704 l 781 704 l 781 844 l 919 844 l 919 704 m 781 563 l 644 563 l 644 704 l 781 704 l 781 563 m 644 424 l 506 424 l 506 563 l 644 563 l 644 424 m 506 282 l 368 282 l 368 424 l 506 424 l 506 282 m 368 142 l 231 142 l 231 282 l 368 282 l 368 142 m 231 0 l 92 0 l 92 142 l 231 142 l 231 0 z "},":":{"ha":1150,"x_min":436,"x_max":714,"o":"m 714 696 l 436 696 l 436 974 l 714 974 l 714 696 m 714 276 l 436 276 l 436 556 l 714 556 l 714 276 z "},";":{"ha":1150,"x_min":436,"x_max":714,"o":"m 714 696 l 436 696 l 436 974 l 714 974 l 714 696 m 713 142 l 572 142 l 572 282 l 436 282 l 436 558 l 713 558 l 713 142 m 572 0 l 436 0 l 436 142 l 572 142 l 572 0 z "},"<":{"ha":1150,"x_min":226,"x_max":922,"o":"m 922 0 l 644 0 l 644 142 l 506 142 l 506 278 l 365 278 l 365 418 l 226 418 l 226 556 l 365 556 l 365 697 l 506 697 l 506 833 l 644 833 l 644 974 l 922 974 l 922 833 l 782 833 l 782 697 l 644 697 l 644 556 l 506 556 l 506 418 l 644 418 l 644 278 l 782 278 l 782 142 l 922 142 l 922 0 z "},"=":{"ha":1150,"x_min":158,"x_max":990,"o":"m 990 558 l 158 558 l 158 700 l 990 700 l 990 558 m 990 276 l 158 276 l 158 418 l 990 418 l 990 276 z "},">":{"ha":1150,"x_min":226,"x_max":922,"o":"m 922 418 l 782 418 l 782 278 l 644 278 l 644 142 l 506 142 l 506 0 l 226 0 l 226 142 l 365 142 l 365 278 l 506 278 l 506 418 l 644 418 l 644 556 l 506 556 l 506 697 l 365 697 l 365 833 l 226 833 l 226 974 l 506 974 l 506 833 l 644 833 l 644 697 l 782 697 l 782 556 l 922 556 l 922 418 z "},"?":{"ha":1150,"x_min":89,"x_max":1061,"o":"m 1061 535 l 782 535 l 782 418 l 644 418 l 644 278 l 506 278 l 506 556 l 644 556 l 644 697 l 782 697 l 782 833 l 365 833 l 365 697 l 89 697 l 89 833 l 226 833 l 226 974 l 922 974 l 922 833 l 1061 833 l 1061 535 m 644 0 l 506 0 l 506 142 l 644 142 l 644 0 z "},"@":{"ha":1150,"x_min":89,"x_max":1061,"o":"m 922 142 l 922 0 l 226 0 l 226 142 l 89 142 l 89 833 l 226 833 l 226 974 l 924 974 l 924 833 l 1061 833 l 1061 421 l 924 421 l 924 279 l 507 279 l 507 694 l 782 694 l 782 833 l 365 833 l 365 142 l 922 142 m 644 556 l 644 421 l 782 421 l 782 556 l 644 556 z "},"A":{"ha":1150,"x_min":89,"x_max":1061,"o":"m 1061 0 l 782 0 l 782 278 l 376 278 l 376 0 l 89 0 l 89 697 l 226 697 l 226 833 l 365 833 l 365 974 l 782 974 l 782 833 l 922 833 l 922 697 l 1061 697 l 1061 0 m 782 418 l 782 697 l 646 697 l 646 833 l 506 833 l 506 697 l 376 697 l 376 418 l 782 418 z "},"B":{"ha":1150,"x_min":89,"x_max":1061,"o":"m 1061 142 l 922 142 l 922 0 l 89 0 l 89 974 l 922 974 l 922 833 l 1061 833 l 1061 556 l 922 556 l 922 439 l 1061 439 l 1061 142 m 782 556 l 782 833 l 365 833 l 365 556 l 782 556 m 782 142 l 782 439 l 365 439 l 365 142 l 782 142 z "},"C":{"ha":1150,"x_min":89,"x_max":1061,"o":"m 1061 142 l 922 142 l 922 0 l 367 0 l 367 142 l 226 142 l 226 278 l 89 278 l 89 697 l 226 697 l 226 833 l 367 833 l 367 974 l 922 974 l 922 833 l 1061 833 l 1061 697 l 782 697 l 782 833 l 506 833 l 506 697 l 367 697 l 367 278 l 506 278 l 506 142 l 782 142 l 782 278 l 1061 278 l 1061 142 z "},"D":{"ha":1150,"x_min":89,"x_max":1061,"o":"m 1061 278 l 922 278 l 922 142 l 782 142 l 782 0 l 89 0 l 89 974 l 782 974 l 782 833 l 922 833 l 922 697 l 1061 697 l 1061 278 m 782 278 l 782 697 l 644 697 l 644 833 l 365 833 l 365 142 l 644 142 l 644 278 l 782 278 z "},"E":{"ha":1150,"x_min":89,"x_max":1061,"o":"m 1061 0 l 89 0 l 89 974 l 1061 974 l 1061 833 l 365 833 l 365 556 l 922 556 l 922 418 l 365 418 l 365 142 l 1061 142 l 1061 0 z "},"F":{"ha":1150,"x_min":89,"x_max":1061,"o":"m 1061 833 l 365 833 l 365 556 l 922 556 l 922 418 l 365 418 l 365 0 l 89 0 l 89 974 l 1061 974 l 1061 833 z "},"G":{"ha":1150,"x_min":89,"x_max":1061,"o":"m 1061 0 l 367 0 l 367 142 l 226 142 l 226 278 l 89 278 l 89 697 l 226 697 l 226 833 l 367 833 l 367 974 l 1061 974 l 1061 833 l 506 833 l 506 697 l 367 697 l 367 278 l 506 278 l 506 142 l 782 142 l 782 418 l 646 418 l 646 556 l 1061 556 l 1061 0 z "},"H":{"ha":1150,"x_min":89,"x_max":1061,"o":"m 1061 0 l 782 0 l 782 418 l 365 418 l 365 0 l 89 0 l 89 974 l 365 974 l 365 556 l 782 556 l 782 974 l 1061 974 l 1061 0 z "},"I":{"ha":1150,"x_min":151,"x_max":999,"o":"m 999 833 l 707 833 l 707 142 l 985 142 l 985 0 l 151 0 l 151 142 l 429 142 l 429 833 l 151 833 l 151 974 l 999 974 l 999 833 z "},"J":{"ha":1150,"x_min":89,"x_max":1061,"o":"m 1061 142 l 921 142 l 921 0 l 225 0 l 225 142 l 89 142 l 89 278 l 365 278 l 365 142 l 782 142 l 782 974 l 1061 974 l 1061 142 z "},"K":{"ha":1150,"x_min":89,"x_max":1061,"o":"m 1061 0 l 644 0 l 644 142 l 506 142 l 506 278 l 365 278 l 365 0 l 89 0 l 89 974 l 365 974 l 365 556 l 506 556 l 506 697 l 644 697 l 644 833 l 782 833 l 782 974 l 1061 974 l 1061 833 l 922 833 l 922 697 l 782 697 l 782 556 l 644 556 l 644 418 l 782 418 l 782 278 l 922 278 l 922 142 l 1061 142 l 1061 0 z "},"L":{"ha":1150,"x_min":89,"x_max":1061,"o":"m 1061 0 l 89 0 l 89 974 l 365 974 l 365 142 l 1061 142 l 1061 0 z "},"M":{"ha":1150,"x_min":89,"x_max":1061,"o":"m 1061 0 l 782 0 l 782 418 l 644 418 l 644 281 l 506 281 l 506 418 l 365 418 l 365 0 l 89 0 l 89 974 l 365 974 l 365 833 l 506 833 l 506 697 l 644 697 l 644 833 l 782 833 l 782 974 l 1061 974 l 1061 0 z "},"N":{"ha":1150,"x_min":89,"x_max":1061,"o":"m 1061 0 l 782 0 l 782 142 l 644 142 l 644 278 l 506 278 l 506 418 l 365 418 l 365 0 l 89 0 l 89 974 l 365 974 l 365 833 l 506 833 l 506 697 l 644 697 l 644 556 l 782 556 l 782 974 l 1061 974 l 1061 0 z "},"O":{"ha":1150,"x_min":89,"x_max":1061,"o":"m 1061 142 l 922 142 l 922 0 l 226 0 l 226 142 l 89 142 l 89 833 l 226 833 l 226 974 l 922 974 l 922 833 l 1061 833 l 1061 142 m 782 142 l 782 833 l 365 833 l 365 142 l 782 142 z "},"P":{"ha":1150,"x_min":89,"x_max":1061,"o":"m 1061 418 l 922 418 l 922 278 l 365 278 l 365 0 l 89 0 l 89 974 l 922 974 l 922 833 l 1061 833 l 1061 418 m 782 418 l 782 833 l 365 833 l 365 418 l 782 418 z "},"Q":{"ha":1150,"x_min":89,"x_max":1061,"o":"m 1061 0 l 922 0 l 922 142 l 782 142 l 782 0 l 226 0 l 226 142 l 89 142 l 89 833 l 226 833 l 226 974 l 922 974 l 922 833 l 1061 833 l 1061 278 l 922 278 l 922 142 l 1061 142 l 1061 0 m 782 418 l 782 833 l 365 833 l 365 142 l 644 142 l 644 278 l 506 278 l 506 418 l 782 418 z "},"R":{"ha":1150,"x_min":89,"x_max":1061,"o":"m 1061 0 l 644 0 l 644 142 l 506 142 l 506 278 l 365 278 l 365 0 l 89 0 l 89 974 l 922 974 l 922 833 l 1061 833 l 1061 418 l 782 418 l 782 278 l 922 278 l 922 142 l 1061 142 l 1061 0 m 782 556 l 782 833 l 365 833 l 365 418 l 644 418 l 644 556 l 782 556 z "},"S":{"ha":1150,"x_min":89,"x_max":1061,"o":"m 1061 142 l 921 142 l 921 0 l 225 0 l 225 142 l 89 142 l 89 278 l 365 278 l 365 142 l 782 142 l 782 418 l 225 418 l 225 556 l 89 556 l 89 833 l 225 833 l 225 974 l 782 974 l 782 833 l 921 833 l 921 697 l 644 697 l 644 833 l 365 833 l 365 556 l 921 556 l 921 418 l 1061 418 l 1061 142 z "},"T":{"ha":1150,"x_min":157,"x_max":992,"o":"m 992 833 l 714 833 l 714 0 l 436 0 l 436 833 l 157 833 l 157 974 l 992 974 l 992 833 z "},"U":{"ha":1150,"x_min":89,"x_max":1061,"o":"m 1061 142 l 922 142 l 922 0 l 226 0 l 226 142 l 89 142 l 89 974 l 365 974 l 365 142 l 782 142 l 782 974 l 1061 974 l 1061 142 z "},"V":{"ha":1150,"x_min":89,"x_max":1061,"o":"m 1061 418 l 922 418 l 922 278 l 782 278 l 782 142 l 646 142 l 646 0 l 506 0 l 506 142 l 365 142 l 365 278 l 226 278 l 226 418 l 89 418 l 89 974 l 365 974 l 365 556 l 506 556 l 506 418 l 646 418 l 646 556 l 782 556 l 782 974 l 1061 974 l 1061 418 z "},"W":{"ha":1150,"x_min":89,"x_max":1061,"o":"m 1061 0 l 782 0 l 782 142 l 644 142 l 644 278 l 506 278 l 506 142 l 365 142 l 365 0 l 89 0 l 89 974 l 365 974 l 365 556 l 506 556 l 506 697 l 644 697 l 644 556 l 782 556 l 782 974 l 1061 974 l 1061 0 z "},"X":{"ha":1150,"x_min":88,"x_max":1061,"o":"m 1061 0 l 781 0 l 781 142 l 644 142 l 644 278 l 504 278 l 504 142 l 365 142 l 365 0 l 88 0 l 88 278 l 225 278 l 225 418 l 365 418 l 365 556 l 225 556 l 225 697 l 88 697 l 88 974 l 365 974 l 365 833 l 504 833 l 504 697 l 644 697 l 644 833 l 781 833 l 781 974 l 1061 974 l 1061 697 l 921 697 l 921 556 l 781 556 l 781 418 l 921 418 l 921 278 l 1061 278 l 1061 0 z "},"Y":{"ha":1150,"x_min":158,"x_max":992,"o":"m 992 556 l 853 556 l 853 418 l 714 418 l 714 0 l 435 0 l 435 418 l 296 418 l 296 556 l 158 556 l 158 974 l 435 974 l 435 556 l 714 556 l 714 974 l 992 974 l 992 556 z "},"Z":{"ha":1150,"x_min":89,"x_max":1061,"o":"m 1061 0 l 89 0 l 89 278 l 226 278 l 226 418 l 365 418 l 365 556 l 506 556 l 506 697 l 644 697 l 644 833 l 89 833 l 89 974 l 1061 974 l 1061 697 l 921 697 l 921 556 l 783 556 l 783 418 l 644 418 l 644 278 l 506 278 l 506 142 l 1061 142 l 1061 0 z "},"[":{"ha":1150,"x_min":436,"x_max":992,"o":"m 992 -142 l 436 -142 l 436 1114 l 992 1114 l 992 974 l 713 974 l 713 0 l 992 0 l 992 -142 z "},"\\":{"ha":1150,"x_min":92,"x_max":1057,"o":"m 1057 -12 l 919 -12 l 919 129 l 781 129 l 781 269 l 644 269 l 644 411 l 506 411 l 506 550 l 368 550 l 368 692 l 231 692 l 231 833 l 92 833 l 92 974 l 231 974 l 231 833 l 368 833 l 368 692 l 506 692 l 506 550 l 644 550 l 644 411 l 781 411 l 781 269 l 919 269 l 919 129 l 1057 129 l 1057 -12 z "},"]":{"ha":1150,"x_min":158,"x_max":714,"o":"m 158 0 l 438 0 l 438 974 l 158 974 l 158 1114 l 714 1114 l 714 -142 l 158 -142 l 158 0 z "},"^":{"ha":1150,"x_min":226,"x_max":922,"o":"m 922 556 l 646 556 l 646 697 l 507 697 l 507 556 l 226 556 l 226 697 l 367 697 l 367 833 l 507 833 l 507 974 l 646 974 l 646 833 l 783 833 l 783 697 l 922 697 l 922 556 z "},"_":{"ha":1150,"x_min":89,"x_max":1061,"o":"m 1061 -142 l 89 -142 l 89 0 l 1061 0 l 1061 -142 z "},"`":{"ha":1150,"x_min":367,"x_max":783,"o":"m 507 1111 l 507 1247 l 367 1247 l 367 1388 l 646 1388 l 646 1247 l 783 1247 l 783 1111 l 507 1111 z "},"a":{"ha":1150,"x_min":89,"x_max":1061,"o":"m 1061 0 l 782 0 l 782 278 l 376 278 l 376 0 l 89 0 l 89 697 l 226 697 l 226 833 l 365 833 l 365 974 l 782 974 l 782 833 l 922 833 l 922 697 l 1061 697 l 1061 0 m 782 418 l 782 697 l 646 697 l 646 833 l 506 833 l 506 697 l 376 697 l 376 418 l 782 418 z "},"b":{"ha":1150,"x_min":89,"x_max":1061,"o":"m 1061 142 l 922 142 l 922 0 l 89 0 l 89 974 l 922 974 l 922 833 l 1061 833 l 1061 556 l 922 556 l 922 439 l 1061 439 l 1061 142 m 782 556 l 782 833 l 365 833 l 365 556 l 782 556 m 782 142 l 782 439 l 365 439 l 365 142 l 782 142 z "},"c":{"ha":1150,"x_min":89,"x_max":1061,"o":"m 1061 142 l 922 142 l 922 0 l 367 0 l 367 142 l 226 142 l 226 278 l 89 278 l 89 697 l 226 697 l 226 833 l 367 833 l 367 974 l 922 974 l 922 833 l 1061 833 l 1061 697 l 782 697 l 782 833 l 506 833 l 506 697 l 367 697 l 367 278 l 506 278 l 506 142 l 782 142 l 782 278 l 1061 278 l 1061 142 z "},"d":{"ha":1150,"x_min":89,"x_max":1061,"o":"m 1061 278 l 922 278 l 922 142 l 782 142 l 782 0 l 89 0 l 89 974 l 782 974 l 782 833 l 922 833 l 922 697 l 1061 697 l 1061 278 m 782 278 l 782 697 l 644 697 l 644 833 l 365 833 l 365 142 l 644 142 l 644 278 l 782 278 z "},"e":{"ha":1150,"x_min":89,"x_max":1061,"o":"m 1061 0 l 89 0 l 89 974 l 1061 974 l 1061 833 l 365 833 l 365 556 l 922 556 l 922 418 l 365 418 l 365 142 l 1061 142 l 1061 0 z "},"f":{"ha":1150,"x_min":89,"x_max":1061,"o":"m 1061 833 l 365 833 l 365 556 l 922 556 l 922 418 l 365 418 l 365 0 l 89 0 l 89 974 l 1061 974 l 1061 833 z "},"g":{"ha":1150,"x_min":89,"x_max":1061,"o":"m 1061 0 l 367 0 l 367 142 l 226 142 l 226 278 l 89 278 l 89 697 l 226 697 l 226 833 l 367 833 l 367 974 l 1061 974 l 1061 833 l 506 833 l 506 697 l 367 697 l 367 278 l 506 278 l 506 142 l 782 142 l 782 418 l 646 418 l 646 556 l 1061 556 l 1061 0 z "},"h":{"ha":1150,"x_min":89,"x_max":1061,"o":"m 1061 0 l 782 0 l 782 418 l 365 418 l 365 0 l 89 0 l 89 974 l 365 974 l 365 556 l 782 556 l 782 974 l 1061 974 l 1061 0 z "},"i":{"ha":1150,"x_min":151,"x_max":999,"o":"m 999 833 l 707 833 l 707 142 l 985 142 l 985 0 l 151 0 l 151 142 l 429 142 l 429 833 l 151 833 l 151 974 l 999 974 l 999 833 z "},"j":{"ha":1150,"x_min":89,"x_max":1061,"o":"m 1061 142 l 921 142 l 921 0 l 225 0 l 225 142 l 89 142 l 89 278 l 365 278 l 365 142 l 782 142 l 782 974 l 1061 974 l 1061 142 z "},"k":{"ha":1150,"x_min":89,"x_max":1061,"o":"m 1061 0 l 644 0 l 644 142 l 506 142 l 506 278 l 365 278 l 365 0 l 89 0 l 89 974 l 365 974 l 365 556 l 506 556 l 506 697 l 644 697 l 644 833 l 782 833 l 782 974 l 1061 974 l 1061 833 l 922 833 l 922 697 l 782 697 l 782 556 l 644 556 l 644 418 l 782 418 l 782 278 l 922 278 l 922 142 l 1061 142 l 1061 0 z "},"l":{"ha":1150,"x_min":88,"x_max":1060,"o":"m 1060 0 l 88 0 l 88 974 l 364 974 l 364 142 l 1060 142 l 1060 0 z "},"m":{"ha":1150,"x_min":89,"x_max":1061,"o":"m 1061 0 l 782 0 l 782 418 l 644 418 l 644 281 l 506 281 l 506 418 l 365 418 l 365 0 l 89 0 l 89 974 l 365 974 l 365 833 l 506 833 l 506 697 l 644 697 l 644 833 l 782 833 l 782 974 l 1061 974 l 1061 0 z "},"n":{"ha":1150,"x_min":89,"x_max":1061,"o":"m 1061 0 l 782 0 l 782 142 l 644 142 l 644 278 l 506 278 l 506 418 l 365 418 l 365 0 l 89 0 l 89 974 l 365 974 l 365 833 l 506 833 l 506 697 l 644 697 l 644 556 l 782 556 l 782 974 l 1061 974 l 1061 0 z "},"o":{"ha":1150,"x_min":89,"x_max":1061,"o":"m 1061 142 l 922 142 l 922 0 l 226 0 l 226 142 l 89 142 l 89 833 l 226 833 l 226 974 l 922 974 l 922 833 l 1061 833 l 1061 142 m 782 142 l 782 833 l 365 833 l 365 142 l 782 142 z "},"p":{"ha":1150,"x_min":89,"x_max":1061,"o":"m 1061 418 l 922 418 l 922 278 l 365 278 l 365 0 l 89 0 l 89 974 l 922 974 l 922 833 l 1061 833 l 1061 418 m 782 418 l 782 833 l 365 833 l 365 418 l 782 418 z "},"q":{"ha":1150,"x_min":89,"x_max":1061,"o":"m 1061 0 l 922 0 l 922 142 l 782 142 l 782 0 l 226 0 l 226 142 l 89 142 l 89 833 l 226 833 l 226 974 l 922 974 l 922 833 l 1061 833 l 1061 278 l 922 278 l 922 142 l 1061 142 l 1061 0 m 782 418 l 782 833 l 365 833 l 365 142 l 644 142 l 644 278 l 506 278 l 506 418 l 782 418 z "},"r":{"ha":1150,"x_min":89,"x_max":1061,"o":"m 1061 0 l 644 0 l 644 142 l 506 142 l 506 278 l 365 278 l 365 0 l 89 0 l 89 974 l 922 974 l 922 833 l 1061 833 l 1061 418 l 782 418 l 782 278 l 922 278 l 922 142 l 1061 142 l 1061 0 m 782 556 l 782 833 l 365 833 l 365 418 l 644 418 l 644 556 l 782 556 z "},"s":{"ha":1150,"x_min":89,"x_max":1061,"o":"m 1061 142 l 921 142 l 921 0 l 225 0 l 225 142 l 89 142 l 89 278 l 365 278 l 365 142 l 782 142 l 782 418 l 225 418 l 225 556 l 89 556 l 89 833 l 225 833 l 225 974 l 782 974 l 782 833 l 921 833 l 921 697 l 644 697 l 644 833 l 365 833 l 365 556 l 921 556 l 921 418 l 1061 418 l 1061 142 z "},"t":{"ha":1150,"x_min":157,"x_max":992,"o":"m 992 833 l 714 833 l 714 0 l 436 0 l 436 833 l 157 833 l 157 974 l 992 974 l 992 833 z "},"u":{"ha":1150,"x_min":89,"x_max":1061,"o":"m 1061 142 l 922 142 l 922 0 l 226 0 l 226 142 l 89 142 l 89 974 l 365 974 l 365 142 l 782 142 l 782 974 l 1061 974 l 1061 142 z "},"v":{"ha":1150,"x_min":89,"x_max":1061,"o":"m 1061 418 l 922 418 l 922 278 l 782 278 l 782 142 l 646 142 l 646 0 l 506 0 l 506 142 l 365 142 l 365 278 l 226 278 l 226 418 l 89 418 l 89 974 l 365 974 l 365 556 l 506 556 l 506 418 l 646 418 l 646 556 l 782 556 l 782 974 l 1061 974 l 1061 418 z "},"w":{"ha":1150,"x_min":89,"x_max":1061,"o":"m 1061 0 l 782 0 l 782 142 l 644 142 l 644 278 l 506 278 l 506 142 l 365 142 l 365 0 l 89 0 l 89 974 l 365 974 l 365 556 l 506 556 l 506 697 l 644 697 l 644 556 l 782 556 l 782 974 l 1061 974 l 1061 0 z "},"x":{"ha":1150,"x_min":88,"x_max":1061,"o":"m 1061 0 l 781 0 l 781 142 l 644 142 l 644 278 l 504 278 l 504 142 l 365 142 l 365 0 l 88 0 l 88 278 l 225 278 l 225 418 l 365 418 l 365 556 l 225 556 l 225 697 l 88 697 l 88 974 l 365 974 l 365 833 l 504 833 l 504 697 l 644 697 l 644 833 l 781 833 l 781 974 l 1061 974 l 1061 697 l 921 697 l 921 556 l 781 556 l 781 418 l 921 418 l 921 278 l 1061 278 l 1061 0 z "},"y":{"ha":1150,"x_min":158,"x_max":992,"o":"m 992 556 l 853 556 l 853 418 l 714 418 l 714 0 l 435 0 l 435 418 l 296 418 l 296 556 l 158 556 l 158 974 l 435 974 l 435 556 l 714 556 l 714 974 l 992 974 l 992 556 z "},"z":{"ha":1150,"x_min":89,"x_max":1061,"o":"m 1061 0 l 89 0 l 89 278 l 226 278 l 226 418 l 365 418 l 365 556 l 506 556 l 506 697 l 644 697 l 644 833 l 89 833 l 89 974 l 1061 974 l 1061 697 l 921 697 l 921 556 l 783 556 l 783 418 l 644 418 l 644 278 l 506 278 l 506 142 l 1061 142 l 1061 0 z "},"{":{"ha":1150,"x_min":435,"x_max":992,"o":"m 713 418 l 854 418 l 854 0 l 992 0 l 992 -142 l 714 -142 l 714 0 l 575 0 l 575 418 l 435 418 l 435 558 l 575 558 l 575 974 l 714 974 l 714 1114 l 992 1114 l 992 974 l 854 974 l 854 558 l 713 558 l 713 418 z "},"|":{"ha":1150,"x_min":436,"x_max":713,"o":"m 436 1114 l 713 1114 l 713 -142 l 436 -142 l 436 1114 z "},"}":{"ha":1150,"x_min":157,"x_max":714,"o":"m 435 558 l 294 558 l 294 974 l 157 974 l 157 1114 l 433 1114 l 433 974 l 574 974 l 574 558 l 714 558 l 714 418 l 574 418 l 574 0 l 433 0 l 433 -142 l 157 -142 l 157 0 l 294 0 l 294 418 l 435 418 l 435 558 z "},"~":{"ha":1150,"x_min":158,"x_max":990,"o":"m 990 418 l 854 418 l 854 556 l 990 556 l 990 418 m 853 279 l 575 279 l 575 417 l 297 417 l 297 556 l 575 556 l 575 417 l 853 417 l 853 279 m 297 279 l 158 279 l 158 417 l 297 417 l 297 279 z "}," ":{"ha":1150,"x_min":0,"x_max":0,"o":""},"¡":{"ha":1150,"x_min":228,"x_max":921,"o":"m 228 276 l 365 276 l 365 418 l 504 418 l 504 556 l 644 556 l 644 696 l 782 696 l 782 276 l 644 276 l 644 0 l 228 0 l 228 276 m 782 974 l 921 974 l 921 833 l 782 833 l 782 974 z "},"¢":{"ha":1150,"x_min":175,"x_max":974,"o":"m 732 824 l 974 824 l 974 685 l 732 685 l 732 299 l 974 299 l 974 157 l 732 157 l 732 3 l 597 3 l 597 157 l 314 157 l 314 299 l 175 299 l 175 685 l 314 685 l 314 824 l 597 824 l 597 974 l 732 974 l 732 824 m 454 299 l 597 299 l 597 685 l 454 685 l 454 547 l 314 547 l 314 436 l 454 436 l 454 299 z "},"£":{"ha":1150,"x_min":158,"x_max":992,"o":"m 299 140 l 299 418 l 158 418 l 158 556 l 299 556 l 299 832 l 439 832 l 439 974 l 854 974 l 854 832 l 992 832 l 992 696 l 714 696 l 714 832 l 574 832 l 574 556 l 714 556 l 714 418 l 574 418 l 574 140 l 992 140 l 992 0 l 158 0 l 158 140 l 299 140 z "},"¤":{"ha":1150,"x_min":225,"x_max":924,"o":"m 225 418 l 364 418 l 364 556 l 225 556 l 225 833 l 364 833 l 364 697 l 785 697 l 785 833 l 924 833 l 924 556 l 785 556 l 785 418 l 924 418 l 924 142 l 785 142 l 785 278 l 364 278 l 364 142 l 225 142 l 225 418 m 644 418 l 644 556 l 504 556 l 504 418 l 644 418 z "},"¥":{"ha":1150,"x_min":158,"x_max":992,"o":"m 992 100 l 714 100 l 714 0 l 435 0 l 435 100 l 160 100 l 160 221 l 435 221 l 435 317 l 160 317 l 160 438 l 435 438 l 435 533 l 296 533 l 296 664 l 158 664 l 158 974 l 435 974 l 435 664 l 714 664 l 714 974 l 992 974 l 992 664 l 851 664 l 851 533 l 714 533 l 714 438 l 992 438 l 992 317 l 714 317 l 714 221 l 992 221 l 992 100 z "},"¦":{"ha":1150,"x_min":436,"x_max":713,"o":"m 713 615 l 436 615 l 436 1114 l 713 1114 l 713 615 m 436 356 l 713 356 l 713 -142 l 436 -142 l 436 356 z "},"§":{"ha":1150,"x_min":169,"x_max":979,"o":"m 979 -126 l 863 -126 l 863 -251 l 283 -251 l 283 -126 l 169 -126 l 169 -7 l 400 -7 l 400 -126 l 747 -126 l 747 117 l 283 117 l 283 238 l 169 238 l 169 482 l 283 482 l 283 606 l 169 606 l 169 850 l 283 850 l 283 974 l 747 974 l 747 850 l 863 850 l 863 731 l 632 731 l 632 850 l 400 850 l 400 606 l 863 606 l 863 482 l 979 482 l 979 238 l 863 238 l 863 117 l 979 117 l 979 -126 m 747 238 l 747 363 l 632 363 l 632 482 l 400 482 l 400 238 l 747 238 z "},"¨":{"ha":1150,"x_min":226,"x_max":922,"o":"m 922 1388 l 922 1111 l 643 1111 l 643 1388 l 922 1388 m 226 1388 l 506 1388 l 506 1111 l 226 1111 l 226 1388 z "},"©":{"ha":1150,"x_min":158,"x_max":990,"o":"m 990 142 l 851 142 l 851 833 l 294 833 l 294 974 l 851 974 l 851 833 l 990 833 l 990 142 m 433 278 l 433 697 l 713 697 l 713 556 l 574 556 l 574 418 l 713 418 l 713 278 l 433 278 m 158 142 l 158 833 l 294 833 l 294 142 l 158 142 m 294 142 l 851 142 l 851 0 l 294 0 l 294 142 z "},"ª":{"ha":1150,"x_min":306,"x_max":844,"o":"m 844 433 l 678 433 l 678 582 l 475 582 l 475 433 l 306 433 l 306 824 l 379 824 l 379 897 l 453 897 l 453 974 l 693 974 l 693 897 l 769 897 l 769 824 l 844 824 l 844 433 m 678 675 l 678 808 l 604 808 l 604 881 l 546 881 l 546 808 l 475 808 l 475 675 l 678 675 z "},"«":{"ha":1150,"x_min":90,"x_max":1060,"o":"m 229 278 l 229 418 l 90 418 l 90 556 l 229 556 l 229 697 l 507 697 l 507 556 l 369 556 l 369 418 l 507 418 l 507 278 l 229 278 m 783 278 l 783 418 l 643 418 l 643 556 l 783 556 l 783 697 l 1060 697 l 1060 556 l 922 556 l 922 418 l 1060 418 l 1060 278 l 783 278 z "},"¬":{"ha":1150,"x_min":158,"x_max":990,"o":"m 990 0 l 714 0 l 714 418 l 158 418 l 158 556 l 990 556 l 990 0 z "},"®":{"ha":1150,"x_min":158,"x_max":990,"o":"m 990 142 l 851 142 l 851 833 l 294 833 l 294 974 l 851 974 l 851 833 l 990 833 l 990 142 m 158 142 l 158 833 l 294 833 l 294 142 l 158 142 m 294 142 l 851 142 l 851 0 l 294 0 l 294 142 m 628 533 l 628 425 l 735 425 l 735 214 l 628 214 l 628 425 l 522 425 l 522 214 l 415 214 l 415 746 l 735 746 l 735 533 l 628 533 l 628 640 l 522 640 l 522 533 l 628 533 z "},"¯":{"ha":1150,"x_min":367,"x_max":783,"o":"m 367 1111 l 367 1247 l 783 1247 l 783 1111 l 367 1111 z "},"°":{"ha":1150,"x_min":228,"x_max":921,"o":"m 228 701 l 228 974 l 365 974 l 365 1114 l 783 1114 l 783 974 l 921 974 l 921 701 l 783 701 l 783 561 l 365 561 l 365 701 l 228 701 m 504 974 l 504 701 l 644 701 l 644 974 l 504 974 z "},"±":{"ha":1150,"x_min":158,"x_max":990,"o":"m 990 418 l 713 418 l 713 142 l 436 142 l 436 418 l 158 418 l 158 556 l 436 556 l 436 833 l 713 833 l 713 556 l 990 556 l 990 418 m 990 -140 l 158 -140 l 158 0 l 990 0 l 990 -140 z "},"²":{"ha":1150,"x_min":306,"x_max":844,"o":"m 844 433 l 306 433 l 306 599 l 381 599 l 381 675 l 454 675 l 454 749 l 604 749 l 604 824 l 679 824 l 679 881 l 471 881 l 471 808 l 306 808 l 306 897 l 381 897 l 381 974 l 769 974 l 769 897 l 844 897 l 844 732 l 769 732 l 769 658 l 694 658 l 694 582 l 546 582 l 546 525 l 844 525 l 844 433 z "},"³":{"ha":1150,"x_min":306,"x_max":844,"o":"m 844 510 l 768 510 l 768 433 l 378 433 l 378 510 l 306 510 l 306 599 l 469 599 l 469 525 l 678 525 l 678 658 l 454 658 l 454 749 l 529 749 l 529 824 l 604 824 l 604 881 l 378 881 l 378 974 l 844 974 l 844 881 l 768 881 l 768 808 l 693 808 l 693 749 l 768 749 l 768 675 l 844 675 l 844 510 z "},"´":{"ha":1150,"x_min":367,"x_max":783,"o":"m 367 1111 l 367 1247 l 504 1247 l 504 1388 l 783 1388 l 783 1247 l 643 1247 l 643 1111 l 367 1111 z "},"¶":{"ha":1150,"x_min":128,"x_max":1021,"o":"m 1021 974 l 1021 -276 l 806 -276 l 806 833 l 679 833 l 679 -276 l 465 -276 l 465 278 l 236 278 l 236 418 l 128 418 l 128 833 l 236 833 l 236 974 l 1021 974 m 465 418 l 465 833 l 344 833 l 344 418 l 465 418 z "},"·":{"ha":1150,"x_min":436,"x_max":714,"o":"m 714 349 l 436 349 l 436 628 l 714 628 l 714 349 z "},"¸":{"ha":1150,"x_min":367,"x_max":783,"o":"m 367 -276 l 367 -140 l 504 -140 l 504 0 l 783 0 l 783 -140 l 643 -140 l 643 -276 l 367 -276 z "},"¹":{"ha":1150,"x_min":343,"x_max":807,"o":"m 807 433 l 343 433 l 343 525 l 492 525 l 492 808 l 417 808 l 417 899 l 492 899 l 492 974 l 657 974 l 657 525 l 807 525 l 807 433 z "},"º":{"ha":1150,"x_min":306,"x_max":844,"o":"m 844 510 l 769 510 l 769 433 l 381 433 l 381 510 l 306 510 l 306 897 l 381 897 l 381 974 l 769 974 l 769 897 l 844 897 l 844 510 m 679 525 l 679 881 l 471 881 l 471 525 l 679 525 z "},"»":{"ha":1150,"x_min":90,"x_max":1060,"o":"m 90 278 l 90 418 l 228 418 l 228 556 l 90 556 l 90 697 l 368 697 l 368 556 l 507 556 l 507 418 l 368 418 l 368 278 l 90 278 m 643 278 l 643 418 l 782 418 l 782 556 l 643 556 l 643 697 l 919 697 l 919 556 l 1060 556 l 1060 418 l 919 418 l 919 278 l 643 278 z "},"¼":{"ha":1150,"x_min":85,"x_max":1065,"o":"m 382 433 l 85 433 l 85 525 l 181 525 l 181 808 l 132 808 l 132 899 l 181 899 l 181 974 l 286 974 l 286 525 l 382 525 l 382 433 m 864 840 l 775 840 l 775 982 l 864 982 l 864 840 m 775 700 l 688 700 l 688 840 l 775 840 l 775 700 m 688 558 l 599 558 l 599 700 l 688 700 l 688 558 m 599 418 l 511 418 l 511 558 l 599 558 l 599 418 m 511 276 l 422 276 l 422 418 l 511 418 l 511 276 m 422 138 l 333 138 l 333 276 l 422 276 l 422 138 m 333 -4 l 247 -4 l 247 138 l 333 138 l 333 -4 m 1065 149 l 1017 149 l 1017 0 l 911 0 l 911 149 l 721 149 l 721 315 l 767 315 l 767 390 l 815 390 l 815 464 l 863 464 l 863 540 l 1017 540 l 1017 242 l 1065 242 l 1065 149 m 911 242 l 911 375 l 874 375 l 874 299 l 825 299 l 825 242 l 911 242 z "},"½":{"ha":1150,"x_min":81,"x_max":1069,"o":"m 378 433 l 81 433 l 81 525 l 176 525 l 176 808 l 128 808 l 128 899 l 176 899 l 176 974 l 282 974 l 282 525 l 378 525 l 378 433 m 860 840 l 771 840 l 771 982 l 860 982 l 860 840 m 771 700 l 683 700 l 683 840 l 771 840 l 771 700 m 683 558 l 594 558 l 594 700 l 683 700 l 683 558 m 594 418 l 507 418 l 507 558 l 594 558 l 594 418 m 507 276 l 418 276 l 418 418 l 507 418 l 507 276 m 418 138 l 329 138 l 329 276 l 418 276 l 418 138 m 329 -4 l 243 -4 l 243 138 l 329 138 l 329 -4 m 1069 0 l 725 0 l 725 165 l 772 165 l 772 242 l 819 242 l 819 315 l 915 315 l 915 390 l 964 390 l 964 447 l 831 447 l 831 375 l 725 375 l 725 464 l 772 464 l 772 540 l 1021 540 l 1021 464 l 1069 464 l 1069 299 l 1021 299 l 1021 225 l 974 225 l 974 149 l 878 149 l 878 92 l 1069 92 l 1069 0 z "},"¾":{"ha":1150,"x_min":58,"x_max":1090,"o":"m 403 510 l 354 510 l 354 433 l 104 433 l 104 510 l 58 510 l 58 599 l 164 599 l 164 525 l 297 525 l 297 658 l 153 658 l 153 749 l 201 749 l 201 824 l 249 824 l 249 881 l 104 881 l 104 974 l 403 974 l 403 881 l 354 881 l 354 808 l 306 808 l 306 749 l 354 749 l 354 675 l 403 675 l 403 510 m 889 840 l 800 840 l 800 982 l 889 982 l 889 840 m 800 700 l 714 700 l 714 840 l 800 840 l 800 700 m 714 558 l 625 558 l 625 700 l 714 700 l 714 558 m 625 418 l 536 418 l 536 558 l 625 558 l 625 418 m 536 276 l 447 276 l 447 418 l 536 418 l 536 276 m 447 138 l 358 138 l 358 276 l 447 276 l 447 138 m 358 -4 l 272 -4 l 272 138 l 358 138 l 358 -4 m 1090 149 l 1042 149 l 1042 0 l 936 0 l 936 149 l 746 149 l 746 315 l 792 315 l 792 390 l 840 390 l 840 464 l 888 464 l 888 540 l 1042 540 l 1042 242 l 1090 242 l 1090 149 m 936 242 l 936 375 l 899 375 l 899 299 l 850 299 l 850 242 l 936 242 z "},"¿":{"ha":1150,"x_min":89,"x_max":1061,"o":"m 89 439 l 367 439 l 367 556 l 506 556 l 506 696 l 644 696 l 644 418 l 506 418 l 506 276 l 367 276 l 367 140 l 783 140 l 783 276 l 1061 276 l 1061 140 l 922 140 l 922 0 l 228 0 l 228 140 l 89 140 l 89 439 m 506 974 l 644 974 l 644 833 l 506 833 l 506 974 z "},"À":{"ha":1150,"x_min":89,"x_max":1061,"o":"m 1061 0 l 782 0 l 782 278 l 376 278 l 376 0 l 89 0 l 89 697 l 226 697 l 226 833 l 365 833 l 365 974 l 782 974 l 782 833 l 922 833 l 922 697 l 1061 697 l 1061 0 m 782 418 l 782 697 l 646 697 l 646 833 l 506 833 l 506 697 l 376 697 l 376 418 l 782 418 m 426 1111 l 426 1247 l 286 1247 l 286 1388 l 565 1388 l 565 1247 l 703 1247 l 703 1111 l 426 1111 z "},"Á":{"ha":1150,"x_min":89,"x_max":1061,"o":"m 1061 0 l 782 0 l 782 278 l 376 278 l 376 0 l 89 0 l 89 697 l 226 697 l 226 833 l 365 833 l 365 974 l 782 974 l 782 833 l 922 833 l 922 697 l 1061 697 l 1061 0 m 782 418 l 782 697 l 646 697 l 646 833 l 506 833 l 506 697 l 376 697 l 376 418 l 782 418 m 424 1111 l 424 1247 l 561 1247 l 561 1388 l 840 1388 l 840 1247 l 700 1247 l 700 1111 l 424 1111 z "},"Â":{"ha":1150,"x_min":89,"x_max":1061,"o":"m 1061 0 l 782 0 l 782 278 l 376 278 l 376 0 l 89 0 l 89 697 l 226 697 l 226 833 l 365 833 l 365 974 l 782 974 l 782 833 l 922 833 l 922 697 l 1061 697 l 1061 0 m 782 418 l 782 697 l 646 697 l 646 833 l 506 833 l 506 697 l 376 697 l 376 418 l 782 418 m 229 1111 l 229 1247 l 367 1247 l 367 1388 l 785 1388 l 785 1247 l 922 1247 l 922 1111 l 646 1111 l 646 1247 l 506 1247 l 506 1111 l 229 1111 z "},"Ã":{"ha":1150,"x_min":89,"x_max":1061,"o":"m 1061 0 l 782 0 l 782 278 l 376 278 l 376 0 l 89 0 l 89 697 l 226 697 l 226 833 l 365 833 l 365 974 l 782 974 l 782 833 l 922 833 l 922 697 l 1061 697 l 1061 0 m 782 418 l 782 697 l 646 697 l 646 833 l 506 833 l 506 697 l 376 697 l 376 418 l 782 418 m 299 1111 l 299 1247 l 439 1247 l 439 1388 l 578 1388 l 578 1247 l 439 1247 l 439 1111 l 299 1111 m 578 1111 l 578 1247 l 715 1247 l 715 1388 l 854 1388 l 854 1247 l 715 1247 l 715 1111 l 578 1111 z "},"Ä":{"ha":1150,"x_min":89,"x_max":1061,"o":"m 1061 0 l 782 0 l 782 278 l 376 278 l 376 0 l 89 0 l 89 697 l 226 697 l 226 833 l 365 833 l 365 974 l 782 974 l 782 833 l 922 833 l 922 697 l 1061 697 l 1061 0 m 782 418 l 782 697 l 646 697 l 646 833 l 506 833 l 506 697 l 376 697 l 376 418 l 782 418 m 924 1388 l 924 1111 l 644 1111 l 644 1388 l 924 1388 m 228 1388 l 507 1388 l 507 1111 l 228 1111 l 228 1388 z "},"Å":{"ha":1150,"x_min":89,"x_max":1061,"o":"m 782 833 l 922 833 l 922 697 l 1061 697 l 1061 0 l 782 0 l 782 278 l 376 278 l 376 0 l 89 0 l 89 697 l 226 697 l 226 833 l 365 833 l 365 1390 l 782 1390 l 782 833 m 782 418 l 782 697 l 646 697 l 646 833 l 506 833 l 506 697 l 376 697 l 376 418 l 782 418 m 646 1114 l 646 1250 l 507 1250 l 507 1114 l 646 1114 z "},"Æ":{"ha":1150,"x_min":51,"x_max":1128,"o":"m 1128 0 l 581 0 l 581 278 l 340 278 l 340 0 l 51 0 l 51 697 l 190 697 l 190 833 l 329 833 l 329 974 l 1128 974 l 1128 833 l 858 833 l 858 556 l 1072 556 l 1072 418 l 858 418 l 858 142 l 1128 142 l 1128 0 m 581 418 l 581 833 l 469 833 l 469 697 l 340 697 l 340 418 l 581 418 z "},"Ç":{"ha":1150,"x_min":89,"x_max":1061,"o":"m 361 -276 l 361 -140 l 499 -140 l 499 0 l 367 0 l 367 142 l 226 142 l 226 278 l 89 278 l 89 697 l 226 697 l 226 833 l 367 833 l 367 974 l 922 974 l 922 833 l 1061 833 l 1061 697 l 782 697 l 782 833 l 506 833 l 506 697 l 367 697 l 367 278 l 506 278 l 506 142 l 782 142 l 782 278 l 1061 278 l 1061 142 l 922 142 l 922 0 l 778 0 l 778 -140 l 638 -140 l 638 -276 l 361 -276 z "},"È":{"ha":1150,"x_min":89,"x_max":1061,"o":"m 1061 0 l 89 0 l 89 974 l 1061 974 l 1061 833 l 365 833 l 365 556 l 922 556 l 922 418 l 365 418 l 365 142 l 1061 142 l 1061 0 m 467 1111 l 467 1247 l 326 1247 l 326 1388 l 606 1388 l 606 1247 l 743 1247 l 743 1111 l 467 1111 z "},"É":{"ha":1150,"x_min":89,"x_max":1061,"o":"m 1061 0 l 89 0 l 89 974 l 1061 974 l 1061 833 l 365 833 l 365 556 l 922 556 l 922 418 l 365 418 l 365 142 l 1061 142 l 1061 0 m 407 1111 l 407 1247 l 544 1247 l 544 1388 l 824 1388 l 824 1247 l 683 1247 l 683 1111 l 407 1111 z "},"Ê":{"ha":1150,"x_min":89,"x_max":1061,"o":"m 1061 0 l 89 0 l 89 974 l 1061 974 l 1061 833 l 365 833 l 365 556 l 922 556 l 922 418 l 365 418 l 365 142 l 1061 142 l 1061 0 m 244 1111 l 244 1247 l 382 1247 l 382 1388 l 800 1388 l 800 1247 l 938 1247 l 938 1111 l 661 1111 l 661 1247 l 521 1247 l 521 1111 l 244 1111 z "},"Ë":{"ha":1150,"x_min":89,"x_max":1061,"o":"m 1061 0 l 89 0 l 89 974 l 1061 974 l 1061 833 l 365 833 l 365 556 l 922 556 l 922 418 l 365 418 l 365 142 l 1061 142 l 1061 0 m 910 1388 l 910 1111 l 631 1111 l 631 1388 l 910 1388 m 214 1388 l 493 1388 l 493 1111 l 214 1111 l 214 1388 z "},"Ì":{"ha":1150,"x_min":151,"x_max":999,"o":"m 999 833 l 707 833 l 707 142 l 985 142 l 985 0 l 151 0 l 151 142 l 429 142 l 429 833 l 151 833 l 151 974 l 999 974 l 999 833 m 444 1111 l 444 1247 l 304 1247 l 304 1388 l 583 1388 l 583 1247 l 721 1247 l 721 1111 l 444 1111 z "},"Í":{"ha":1150,"x_min":151,"x_max":999,"o":"m 999 833 l 707 833 l 707 142 l 985 142 l 985 0 l 151 0 l 151 142 l 429 142 l 429 833 l 151 833 l 151 974 l 999 974 l 999 833 m 438 1111 l 438 1247 l 575 1247 l 575 1388 l 854 1388 l 854 1247 l 714 1247 l 714 1111 l 438 1111 z "},"Î":{"ha":1150,"x_min":151,"x_max":999,"o":"m 999 833 l 707 833 l 707 142 l 985 142 l 985 0 l 151 0 l 151 142 l 429 142 l 429 833 l 151 833 l 151 974 l 999 974 l 999 833 m 229 1111 l 229 1247 l 367 1247 l 367 1388 l 785 1388 l 785 1247 l 922 1247 l 922 1111 l 646 1111 l 646 1247 l 506 1247 l 506 1111 l 229 1111 z "},"Ï":{"ha":1150,"x_min":151,"x_max":999,"o":"m 999 833 l 707 833 l 707 142 l 985 142 l 985 0 l 151 0 l 151 142 l 429 142 l 429 833 l 151 833 l 151 974 l 999 974 l 999 833 m 924 1388 l 924 1111 l 644 1111 l 644 1388 l 924 1388 m 228 1388 l 507 1388 l 507 1111 l 228 1111 l 228 1388 z "},"Ð":{"ha":1150,"x_min":19,"x_max":1075,"o":"m 1075 278 l 935 278 l 935 142 l 796 142 l 796 0 l 103 0 l 103 417 l 19 417 l 19 557 l 103 557 l 103 974 l 796 974 l 796 833 l 935 833 l 935 697 l 1075 697 l 1075 278 m 514 417 l 379 417 l 379 142 l 658 142 l 658 278 l 796 278 l 796 697 l 658 697 l 658 833 l 379 833 l 379 557 l 514 557 l 514 417 z "},"Ñ":{"ha":1150,"x_min":89,"x_max":1061,"o":"m 1061 0 l 782 0 l 782 142 l 644 142 l 644 278 l 506 278 l 506 418 l 365 418 l 365 0 l 89 0 l 89 974 l 365 974 l 365 833 l 506 833 l 506 697 l 644 697 l 644 556 l 782 556 l 782 974 l 1061 974 l 1061 0 m 297 1111 l 297 1247 l 438 1247 l 438 1388 l 576 1388 l 576 1247 l 438 1247 l 438 1111 l 297 1111 m 576 1111 l 576 1247 l 714 1247 l 714 1388 l 853 1388 l 853 1247 l 714 1247 l 714 1111 l 576 1111 z "},"Ò":{"ha":1150,"x_min":89,"x_max":1061,"o":"m 1061 142 l 922 142 l 922 0 l 226 0 l 226 142 l 89 142 l 89 833 l 226 833 l 226 974 l 922 974 l 922 833 l 1061 833 l 1061 142 m 782 142 l 782 833 l 365 833 l 365 142 l 782 142 m 453 1111 l 453 1247 l 313 1247 l 313 1388 l 592 1388 l 592 1247 l 729 1247 l 729 1111 l 453 1111 z "},"Ó":{"ha":1150,"x_min":89,"x_max":1061,"o":"m 1061 142 l 922 142 l 922 0 l 226 0 l 226 142 l 89 142 l 89 833 l 226 833 l 226 974 l 922 974 l 922 833 l 1061 833 l 1061 142 m 782 142 l 782 833 l 365 833 l 365 142 l 782 142 m 422 1111 l 422 1247 l 560 1247 l 560 1388 l 839 1388 l 839 1247 l 699 1247 l 699 1111 l 422 1111 z "},"Ô":{"ha":1150,"x_min":89,"x_max":1061,"o":"m 1061 142 l 922 142 l 922 0 l 226 0 l 226 142 l 89 142 l 89 833 l 226 833 l 226 974 l 922 974 l 922 833 l 1061 833 l 1061 142 m 782 142 l 782 833 l 365 833 l 365 142 l 782 142 m 228 1111 l 228 1247 l 365 1247 l 365 1388 l 783 1388 l 783 1247 l 921 1247 l 921 1111 l 644 1111 l 644 1247 l 504 1247 l 504 1111 l 228 1111 z "},"Õ":{"ha":1150,"x_min":89,"x_max":1061,"o":"m 1061 142 l 922 142 l 922 0 l 226 0 l 226 142 l 89 142 l 89 833 l 226 833 l 226 974 l 922 974 l 922 833 l 1061 833 l 1061 142 m 782 142 l 782 833 l 365 833 l 365 142 l 782 142 m 297 1111 l 297 1247 l 438 1247 l 438 1388 l 576 1388 l 576 1247 l 438 1247 l 438 1111 l 297 1111 m 576 1111 l 576 1247 l 714 1247 l 714 1388 l 853 1388 l 853 1247 l 714 1247 l 714 1111 l 576 1111 z "},"Ö":{"ha":1150,"x_min":89,"x_max":1061,"o":"m 1061 142 l 922 142 l 922 0 l 226 0 l 226 142 l 89 142 l 89 833 l 226 833 l 226 974 l 922 974 l 922 833 l 1061 833 l 1061 142 m 782 142 l 782 833 l 365 833 l 365 142 l 782 142 m 922 1388 l 922 1111 l 643 1111 l 643 1388 l 922 1388 m 226 1388 l 506 1388 l 506 1111 l 226 1111 l 226 1388 z "},"×":{"ha":1150,"x_min":225,"x_max":924,"o":"m 225 418 l 364 418 l 364 556 l 225 556 l 225 833 l 364 833 l 364 697 l 504 697 l 504 556 l 644 556 l 644 697 l 785 697 l 785 833 l 924 833 l 924 556 l 785 556 l 785 418 l 924 418 l 924 142 l 785 142 l 785 278 l 644 278 l 644 418 l 504 418 l 504 278 l 364 278 l 364 142 l 225 142 l 225 418 z "},"Ø":{"ha":1150,"x_min":89,"x_max":1061,"o":"m 1061 142 l 922 142 l 922 0 l 226 0 l 226 142 l 89 142 l 89 833 l 226 833 l 226 974 l 922 974 l 922 833 l 1061 833 l 1061 142 m 782 142 l 782 833 l 365 833 l 365 142 l 782 142 m 779 550 l 644 550 l 644 689 l 779 689 l 779 550 m 644 414 l 507 414 l 507 550 l 644 550 l 644 414 m 507 275 l 371 275 l 371 414 l 507 414 l 507 275 z "},"Ù":{"ha":1150,"x_min":89,"x_max":1061,"o":"m 1061 142 l 922 142 l 922 0 l 226 0 l 226 142 l 89 142 l 89 974 l 365 974 l 365 142 l 782 142 l 782 974 l 1061 974 l 1061 142 m 453 1111 l 453 1247 l 313 1247 l 313 1388 l 592 1388 l 592 1247 l 729 1247 l 729 1111 l 453 1111 z "},"Ú":{"ha":1150,"x_min":89,"x_max":1061,"o":"m 1061 142 l 922 142 l 922 0 l 226 0 l 226 142 l 89 142 l 89 974 l 365 974 l 365 142 l 782 142 l 782 974 l 1061 974 l 1061 142 m 422 1111 l 422 1247 l 560 1247 l 560 1388 l 839 1388 l 839 1247 l 699 1247 l 699 1111 l 422 1111 z "},"Û":{"ha":1150,"x_min":89,"x_max":1061,"o":"m 1061 142 l 922 142 l 922 0 l 226 0 l 226 142 l 89 142 l 89 974 l 365 974 l 365 142 l 782 142 l 782 974 l 1061 974 l 1061 142 m 228 1111 l 228 1247 l 365 1247 l 365 1388 l 783 1388 l 783 1247 l 921 1247 l 921 1111 l 644 1111 l 644 1247 l 504 1247 l 504 1111 l 228 1111 z "},"Ü":{"ha":1150,"x_min":89,"x_max":1061,"o":"m 1061 142 l 922 142 l 922 0 l 226 0 l 226 142 l 89 142 l 89 974 l 365 974 l 365 142 l 782 142 l 782 974 l 1061 974 l 1061 142 m 922 1388 l 922 1111 l 643 1111 l 643 1388 l 922 1388 m 226 1388 l 506 1388 l 506 1111 l 226 1111 l 226 1388 z "},"Ý":{"ha":1150,"x_min":158,"x_max":992,"o":"m 992 556 l 853 556 l 853 418 l 714 418 l 714 0 l 435 0 l 435 418 l 296 418 l 296 556 l 158 556 l 158 974 l 435 974 l 435 556 l 714 556 l 714 974 l 992 974 l 992 556 m 433 1111 l 433 1247 l 571 1247 l 571 1388 l 850 1388 l 850 1247 l 710 1247 l 710 1111 l 433 1111 z "},"Þ":{"ha":1150,"x_min":89,"x_max":1061,"o":"m 1061 360 l 922 360 l 922 219 l 365 219 l 365 0 l 89 0 l 89 974 l 365 974 l 365 776 l 922 776 l 922 638 l 1061 638 l 1061 360 m 782 360 l 782 638 l 365 638 l 365 360 l 782 360 z "},"ß":{"ha":1150,"x_min":-465,"x_max":1617,"o":"m 507 142 l 367 142 l 367 0 l -329 0 l -329 142 l -465 142 l -465 278 l -189 278 l -189 142 l 228 142 l 228 418 l -329 418 l -329 556 l -465 556 l -465 833 l -329 833 l -329 974 l 228 974 l 228 833 l 367 833 l 367 697 l 90 697 l 90 833 l -189 833 l -189 556 l 367 556 l 367 418 l 507 418 l 507 142 m 1617 142 l 1476 142 l 1476 0 l 781 0 l 781 142 l 644 142 l 644 278 l 921 278 l 921 142 l 1338 142 l 1338 418 l 781 418 l 781 556 l 644 556 l 644 833 l 781 833 l 781 974 l 1338 974 l 1338 833 l 1476 833 l 1476 697 l 1200 697 l 1200 833 l 921 833 l 921 556 l 1476 556 l 1476 418 l 1617 418 l 1617 142 z "},"à":{"ha":1150,"x_min":89,"x_max":1061,"o":"m 1061 0 l 782 0 l 782 278 l 376 278 l 376 0 l 89 0 l 89 697 l 226 697 l 226 833 l 365 833 l 365 974 l 782 974 l 782 833 l 922 833 l 922 697 l 1061 697 l 1061 0 m 782 418 l 782 697 l 646 697 l 646 833 l 506 833 l 506 697 l 376 697 l 376 418 l 782 418 m 426 1111 l 426 1247 l 286 1247 l 286 1388 l 565 1388 l 565 1247 l 703 1247 l 703 1111 l 426 1111 z "},"á":{"ha":1150,"x_min":89,"x_max":1061,"o":"m 1061 0 l 782 0 l 782 278 l 376 278 l 376 0 l 89 0 l 89 697 l 226 697 l 226 833 l 365 833 l 365 974 l 782 974 l 782 833 l 922 833 l 922 697 l 1061 697 l 1061 0 m 782 418 l 782 697 l 646 697 l 646 833 l 506 833 l 506 697 l 376 697 l 376 418 l 782 418 m 424 1111 l 424 1247 l 561 1247 l 561 1388 l 840 1388 l 840 1247 l 700 1247 l 700 1111 l 424 1111 z "},"â":{"ha":1150,"x_min":89,"x_max":1061,"o":"m 1061 0 l 782 0 l 782 278 l 376 278 l 376 0 l 89 0 l 89 697 l 226 697 l 226 833 l 365 833 l 365 974 l 782 974 l 782 833 l 922 833 l 922 697 l 1061 697 l 1061 0 m 782 418 l 782 697 l 646 697 l 646 833 l 506 833 l 506 697 l 376 697 l 376 418 l 782 418 m 229 1111 l 229 1247 l 367 1247 l 367 1388 l 785 1388 l 785 1247 l 922 1247 l 922 1111 l 646 1111 l 646 1247 l 506 1247 l 506 1111 l 229 1111 z "},"ã":{"ha":1150,"x_min":89,"x_max":1061,"o":"m 1061 0 l 782 0 l 782 278 l 376 278 l 376 0 l 89 0 l 89 697 l 226 697 l 226 833 l 365 833 l 365 974 l 782 974 l 782 833 l 922 833 l 922 697 l 1061 697 l 1061 0 m 782 418 l 782 697 l 646 697 l 646 833 l 506 833 l 506 697 l 376 697 l 376 418 l 782 418 m 299 1111 l 299 1247 l 439 1247 l 439 1388 l 578 1388 l 578 1247 l 439 1247 l 439 1111 l 299 1111 m 578 1111 l 578 1247 l 715 1247 l 715 1388 l 854 1388 l 854 1247 l 715 1247 l 715 1111 l 578 1111 z "},"ä":{"ha":1150,"x_min":89,"x_max":1061,"o":"m 1061 0 l 782 0 l 782 278 l 376 278 l 376 0 l 89 0 l 89 697 l 226 697 l 226 833 l 365 833 l 365 974 l 782 974 l 782 833 l 922 833 l 922 697 l 1061 697 l 1061 0 m 782 418 l 782 697 l 646 697 l 646 833 l 506 833 l 506 697 l 376 697 l 376 418 l 782 418 m 924 1388 l 924 1111 l 644 1111 l 644 1388 l 924 1388 m 228 1388 l 507 1388 l 507 1111 l 228 1111 l 228 1388 z "},"å":{"ha":1150,"x_min":89,"x_max":1061,"o":"m 782 833 l 922 833 l 922 697 l 1061 697 l 1061 0 l 782 0 l 782 278 l 376 278 l 376 0 l 89 0 l 89 697 l 226 697 l 226 833 l 365 833 l 365 1390 l 782 1390 l 782 833 m 782 418 l 782 697 l 646 697 l 646 833 l 506 833 l 506 697 l 376 697 l 376 418 l 782 418 m 646 1114 l 646 1250 l 507 1250 l 507 1114 l 646 1114 z "},"æ":{"ha":1150,"x_min":51,"x_max":1128,"o":"m 1128 0 l 581 0 l 581 278 l 340 278 l 340 0 l 51 0 l 51 697 l 190 697 l 190 833 l 329 833 l 329 974 l 1128 974 l 1128 833 l 858 833 l 858 556 l 1072 556 l 1072 418 l 858 418 l 858 142 l 1128 142 l 1128 0 m 581 418 l 581 833 l 469 833 l 469 697 l 340 697 l 340 418 l 581 418 z "},"ç":{"ha":1150,"x_min":89,"x_max":1061,"o":"m 361 -276 l 361 -140 l 499 -140 l 499 0 l 367 0 l 367 142 l 226 142 l 226 278 l 89 278 l 89 697 l 226 697 l 226 833 l 367 833 l 367 974 l 922 974 l 922 833 l 1061 833 l 1061 697 l 782 697 l 782 833 l 506 833 l 506 697 l 367 697 l 367 278 l 506 278 l 506 142 l 782 142 l 782 278 l 1061 278 l 1061 142 l 922 142 l 922 0 l 778 0 l 778 -140 l 638 -140 l 638 -276 l 361 -276 z "},"è":{"ha":1150,"x_min":89,"x_max":1061,"o":"m 1061 0 l 89 0 l 89 974 l 1061 974 l 1061 833 l 365 833 l 365 556 l 922 556 l 922 418 l 365 418 l 365 142 l 1061 142 l 1061 0 m 467 1111 l 467 1247 l 326 1247 l 326 1388 l 606 1388 l 606 1247 l 743 1247 l 743 1111 l 467 1111 z "},"é":{"ha":1150,"x_min":89,"x_max":1061,"o":"m 1061 0 l 89 0 l 89 974 l 1061 974 l 1061 833 l 365 833 l 365 556 l 922 556 l 922 418 l 365 418 l 365 142 l 1061 142 l 1061 0 m 407 1111 l 407 1247 l 544 1247 l 544 1388 l 824 1388 l 824 1247 l 683 1247 l 683 1111 l 407 1111 z "},"ê":{"ha":1150,"x_min":89,"x_max":1061,"o":"m 1061 0 l 89 0 l 89 974 l 1061 974 l 1061 833 l 365 833 l 365 556 l 922 556 l 922 418 l 365 418 l 365 142 l 1061 142 l 1061 0 m 244 1111 l 244 1247 l 382 1247 l 382 1388 l 800 1388 l 800 1247 l 938 1247 l 938 1111 l 661 1111 l 661 1247 l 521 1247 l 521 1111 l 244 1111 z "},"ë":{"ha":1150,"x_min":89,"x_max":1061,"o":"m 1061 0 l 89 0 l 89 974 l 1061 974 l 1061 833 l 365 833 l 365 556 l 922 556 l 922 418 l 365 418 l 365 142 l 1061 142 l 1061 0 m 910 1388 l 910 1111 l 631 1111 l 631 1388 l 910 1388 m 214 1388 l 493 1388 l 493 1111 l 214 1111 l 214 1388 z "},"ì":{"ha":1150,"x_min":151,"x_max":999,"o":"m 999 833 l 707 833 l 707 142 l 985 142 l 985 0 l 151 0 l 151 142 l 429 142 l 429 833 l 151 833 l 151 974 l 999 974 l 999 833 m 444 1111 l 444 1247 l 304 1247 l 304 1388 l 583 1388 l 583 1247 l 721 1247 l 721 1111 l 444 1111 z "},"í":{"ha":1150,"x_min":151,"x_max":999,"o":"m 999 833 l 707 833 l 707 142 l 985 142 l 985 0 l 151 0 l 151 142 l 429 142 l 429 833 l 151 833 l 151 974 l 999 974 l 999 833 m 438 1111 l 438 1247 l 575 1247 l 575 1388 l 854 1388 l 854 1247 l 714 1247 l 714 1111 l 438 1111 z "},"î":{"ha":1150,"x_min":151,"x_max":999,"o":"m 999 833 l 707 833 l 707 142 l 985 142 l 985 0 l 151 0 l 151 142 l 429 142 l 429 833 l 151 833 l 151 974 l 999 974 l 999 833 m 229 1111 l 229 1247 l 367 1247 l 367 1388 l 785 1388 l 785 1247 l 922 1247 l 922 1111 l 646 1111 l 646 1247 l 506 1247 l 506 1111 l 229 1111 z "},"ï":{"ha":1150,"x_min":151,"x_max":999,"o":"m 999 833 l 707 833 l 707 142 l 985 142 l 985 0 l 151 0 l 151 142 l 429 142 l 429 833 l 151 833 l 151 974 l 999 974 l 999 833 m 924 1388 l 924 1111 l 644 1111 l 644 1388 l 924 1388 m 228 1388 l 507 1388 l 507 1111 l 228 1111 l 228 1388 z "},"ð":{"ha":1150,"x_min":19,"x_max":1075,"o":"m 1075 278 l 935 278 l 935 142 l 796 142 l 796 0 l 103 0 l 103 417 l 19 417 l 19 557 l 103 557 l 103 974 l 796 974 l 796 833 l 935 833 l 935 697 l 1075 697 l 1075 278 m 514 417 l 379 417 l 379 142 l 658 142 l 658 278 l 796 278 l 796 697 l 658 697 l 658 833 l 379 833 l 379 557 l 514 557 l 514 417 z "},"ñ":{"ha":1150,"x_min":89,"x_max":1061,"o":"m 1061 0 l 782 0 l 782 142 l 644 142 l 644 278 l 506 278 l 506 418 l 365 418 l 365 0 l 89 0 l 89 974 l 365 974 l 365 833 l 506 833 l 506 697 l 644 697 l 644 556 l 782 556 l 782 974 l 1061 974 l 1061 0 m 297 1111 l 297 1247 l 438 1247 l 438 1388 l 576 1388 l 576 1247 l 438 1247 l 438 1111 l 297 1111 m 576 1111 l 576 1247 l 714 1247 l 714 1388 l 853 1388 l 853 1247 l 714 1247 l 714 1111 l 576 1111 z "},"ò":{"ha":1150,"x_min":89,"x_max":1061,"o":"m 1061 142 l 922 142 l 922 0 l 226 0 l 226 142 l 89 142 l 89 833 l 226 833 l 226 974 l 922 974 l 922 833 l 1061 833 l 1061 142 m 782 142 l 782 833 l 365 833 l 365 142 l 782 142 m 453 1111 l 453 1247 l 313 1247 l 313 1388 l 592 1388 l 592 1247 l 729 1247 l 729 1111 l 453 1111 z "},"ó":{"ha":1150,"x_min":89,"x_max":1061,"o":"m 1061 142 l 922 142 l 922 0 l 226 0 l 226 142 l 89 142 l 89 833 l 226 833 l 226 974 l 922 974 l 922 833 l 1061 833 l 1061 142 m 782 142 l 782 833 l 365 833 l 365 142 l 782 142 m 422 1111 l 422 1247 l 560 1247 l 560 1388 l 839 1388 l 839 1247 l 699 1247 l 699 1111 l 422 1111 z "},"ô":{"ha":1150,"x_min":89,"x_max":1061,"o":"m 1061 142 l 922 142 l 922 0 l 226 0 l 226 142 l 89 142 l 89 833 l 226 833 l 226 974 l 922 974 l 922 833 l 1061 833 l 1061 142 m 782 142 l 782 833 l 365 833 l 365 142 l 782 142 m 228 1111 l 228 1247 l 365 1247 l 365 1388 l 783 1388 l 783 1247 l 921 1247 l 921 1111 l 644 1111 l 644 1247 l 504 1247 l 504 1111 l 228 1111 z "},"õ":{"ha":1150,"x_min":89,"x_max":1061,"o":"m 1061 142 l 922 142 l 922 0 l 226 0 l 226 142 l 89 142 l 89 833 l 226 833 l 226 974 l 922 974 l 922 833 l 1061 833 l 1061 142 m 782 142 l 782 833 l 365 833 l 365 142 l 782 142 m 297 1111 l 297 1247 l 438 1247 l 438 1388 l 576 1388 l 576 1247 l 438 1247 l 438 1111 l 297 1111 m 576 1111 l 576 1247 l 714 1247 l 714 1388 l 853 1388 l 853 1247 l 714 1247 l 714 1111 l 576 1111 z "},"ö":{"ha":1150,"x_min":89,"x_max":1061,"o":"m 1061 142 l 922 142 l 922 0 l 226 0 l 226 142 l 89 142 l 89 833 l 226 833 l 226 974 l 922 974 l 922 833 l 1061 833 l 1061 142 m 782 142 l 782 833 l 365 833 l 365 142 l 782 142 m 922 1388 l 922 1111 l 643 1111 l 643 1388 l 922 1388 m 226 1388 l 506 1388 l 506 1111 l 226 1111 l 226 1388 z "},"÷":{"ha":1150,"x_min":158,"x_max":990,"o":"m 990 418 l 158 418 l 158 556 l 990 556 l 990 418 m 713 693 l 436 693 l 436 833 l 713 833 l 713 693 m 436 142 l 436 279 l 713 279 l 713 142 l 436 142 z "},"ø":{"ha":1150,"x_min":89,"x_max":1061,"o":"m 1061 142 l 922 142 l 922 0 l 226 0 l 226 142 l 89 142 l 89 833 l 226 833 l 226 974 l 922 974 l 922 833 l 1061 833 l 1061 142 m 782 142 l 782 833 l 365 833 l 365 142 l 782 142 m 779 550 l 644 550 l 644 689 l 779 689 l 779 550 m 644 414 l 507 414 l 507 550 l 644 550 l 644 414 m 507 275 l 371 275 l 371 414 l 507 414 l 507 275 z "},"ù":{"ha":1150,"x_min":89,"x_max":1061,"o":"m 1061 142 l 922 142 l 922 0 l 226 0 l 226 142 l 89 142 l 89 974 l 365 974 l 365 142 l 782 142 l 782 974 l 1061 974 l 1061 142 m 453 1111 l 453 1247 l 313 1247 l 313 1388 l 592 1388 l 592 1247 l 729 1247 l 729 1111 l 453 1111 z "},"ú":{"ha":1150,"x_min":89,"x_max":1061,"o":"m 1061 142 l 922 142 l 922 0 l 226 0 l 226 142 l 89 142 l 89 974 l 365 974 l 365 142 l 782 142 l 782 974 l 1061 974 l 1061 142 m 422 1111 l 422 1247 l 560 1247 l 560 1388 l 839 1388 l 839 1247 l 699 1247 l 699 1111 l 422 1111 z "},"û":{"ha":1150,"x_min":89,"x_max":1061,"o":"m 1061 142 l 922 142 l 922 0 l 226 0 l 226 142 l 89 142 l 89 974 l 365 974 l 365 142 l 782 142 l 782 974 l 1061 974 l 1061 142 m 228 1111 l 228 1247 l 365 1247 l 365 1388 l 783 1388 l 783 1247 l 921 1247 l 921 1111 l 644 1111 l 644 1247 l 504 1247 l 504 1111 l 228 1111 z "},"ü":{"ha":1150,"x_min":89,"x_max":1061,"o":"m 1061 142 l 922 142 l 922 0 l 226 0 l 226 142 l 89 142 l 89 974 l 365 974 l 365 142 l 782 142 l 782 974 l 1061 974 l 1061 142 m 922 1388 l 922 1111 l 643 1111 l 643 1388 l 922 1388 m 226 1388 l 506 1388 l 506 1111 l 226 1111 l 226 1388 z "},"ý":{"ha":1150,"x_min":158,"x_max":992,"o":"m 992 556 l 853 556 l 853 418 l 714 418 l 714 0 l 435 0 l 435 418 l 296 418 l 296 556 l 158 556 l 158 974 l 435 974 l 435 556 l 714 556 l 714 974 l 992 974 l 992 556 m 433 1111 l 433 1247 l 571 1247 l 571 1388 l 850 1388 l 850 1247 l 710 1247 l 710 1111 l 433 1111 z "},"þ":{"ha":1150,"x_min":89,"x_max":1061,"o":"m 1061 360 l 922 360 l 922 219 l 365 219 l 365 0 l 89 0 l 89 974 l 365 974 l 365 776 l 922 776 l 922 638 l 1061 638 l 1061 360 m 782 360 l 782 638 l 365 638 l 365 360 l 782 360 z "},"ÿ":{"ha":1150,"x_min":158,"x_max":992,"o":"m 992 556 l 853 556 l 853 418 l 714 418 l 714 0 l 435 0 l 435 418 l 296 418 l 296 556 l 158 556 l 158 974 l 435 974 l 435 556 l 714 556 l 714 974 l 992 974 l 992 556 m 922 1388 l 922 1111 l 643 1111 l 643 1388 l 922 1388 m 226 1388 l 506 1388 l 506 1111 l 226 1111 l 226 1388 z "},"Ā":{"ha":1150,"x_min":89,"x_max":1061,"o":"m 1061 0 l 782 0 l 782 278 l 376 278 l 376 0 l 89 0 l 89 697 l 226 697 l 226 833 l 365 833 l 365 974 l 782 974 l 782 833 l 922 833 l 922 697 l 1061 697 l 1061 0 m 782 418 l 782 697 l 646 697 l 646 833 l 506 833 l 506 697 l 376 697 l 376 418 l 782 418 m 368 1111 l 368 1247 l 785 1247 l 785 1111 l 368 1111 z "},"ā":{"ha":1150,"x_min":89,"x_max":1061,"o":"m 1061 0 l 782 0 l 782 278 l 376 278 l 376 0 l 89 0 l 89 697 l 226 697 l 226 833 l 365 833 l 365 974 l 782 974 l 782 833 l 922 833 l 922 697 l 1061 697 l 1061 0 m 782 418 l 782 697 l 646 697 l 646 833 l 506 833 l 506 697 l 376 697 l 376 418 l 782 418 m 368 1111 l 368 1247 l 785 1247 l 785 1111 l 368 1111 z "},"Ă":{"ha":1150,"x_min":89,"x_max":1061,"o":"m 1061 0 l 782 0 l 782 278 l 376 278 l 376 0 l 89 0 l 89 697 l 226 697 l 226 833 l 365 833 l 365 974 l 782 974 l 782 833 l 922 833 l 922 697 l 1061 697 l 1061 0 m 782 418 l 782 697 l 646 697 l 646 833 l 506 833 l 506 697 l 376 697 l 376 418 l 782 418 m 854 1388 l 854 1111 l 299 1111 l 299 1388 l 439 1388 l 439 1250 l 715 1250 l 715 1388 l 854 1388 z "},"ă":{"ha":1150,"x_min":89,"x_max":1061,"o":"m 1061 0 l 782 0 l 782 278 l 376 278 l 376 0 l 89 0 l 89 697 l 226 697 l 226 833 l 365 833 l 365 974 l 782 974 l 782 833 l 922 833 l 922 697 l 1061 697 l 1061 0 m 782 418 l 782 697 l 646 697 l 646 833 l 506 833 l 506 697 l 376 697 l 376 418 l 782 418 m 854 1388 l 854 1111 l 299 1111 l 299 1388 l 439 1388 l 439 1250 l 715 1250 l 715 1388 l 854 1388 z "},"Ą":{"ha":1150,"x_min":89,"x_max":1061,"o":"m 644 -276 l 644 0 l 782 0 l 782 278 l 376 278 l 376 0 l 89 0 l 89 697 l 226 697 l 226 833 l 365 833 l 365 974 l 782 974 l 782 833 l 922 833 l 922 697 l 1061 697 l 1061 0 l 785 0 l 785 -140 l 1061 -140 l 1061 -276 l 644 -276 m 782 418 l 782 697 l 646 697 l 646 833 l 506 833 l 506 697 l 376 697 l 376 418 l 782 418 z "},"ą":{"ha":1150,"x_min":89,"x_max":1061,"o":"m 644 -276 l 644 0 l 782 0 l 782 278 l 376 278 l 376 0 l 89 0 l 89 697 l 226 697 l 226 833 l 365 833 l 365 974 l 782 974 l 782 833 l 922 833 l 922 697 l 1061 697 l 1061 0 l 785 0 l 785 -140 l 1061 -140 l 1061 -276 l 644 -276 m 782 418 l 782 697 l 646 697 l 646 833 l 506 833 l 506 697 l 376 697 l 376 418 l 782 418 z "},"Ć":{"ha":1150,"x_min":89,"x_max":1061,"o":"m 1061 142 l 922 142 l 922 0 l 367 0 l 367 142 l 226 142 l 226 278 l 89 278 l 89 697 l 226 697 l 226 833 l 367 833 l 367 974 l 922 974 l 922 833 l 1061 833 l 1061 697 l 782 697 l 782 833 l 506 833 l 506 697 l 367 697 l 367 278 l 506 278 l 506 142 l 782 142 l 782 278 l 1061 278 l 1061 142 m 486 1111 l 486 1247 l 624 1247 l 624 1388 l 903 1388 l 903 1247 l 763 1247 l 763 1111 l 486 1111 z "},"ć":{"ha":1150,"x_min":89,"x_max":1061,"o":"m 1061 142 l 922 142 l 922 0 l 367 0 l 367 142 l 226 142 l 226 278 l 89 278 l 89 697 l 226 697 l 226 833 l 367 833 l 367 974 l 922 974 l 922 833 l 1061 833 l 1061 697 l 782 697 l 782 833 l 506 833 l 506 697 l 367 697 l 367 278 l 506 278 l 506 142 l 782 142 l 782 278 l 1061 278 l 1061 142 m 486 1111 l 486 1247 l 624 1247 l 624 1388 l 903 1388 l 903 1247 l 763 1247 l 763 1111 l 486 1111 z "},"Ċ":{"ha":1150,"x_min":89,"x_max":1061,"o":"m 1061 142 l 922 142 l 922 0 l 367 0 l 367 142 l 226 142 l 226 278 l 89 278 l 89 697 l 226 697 l 226 833 l 367 833 l 367 974 l 922 974 l 922 833 l 1061 833 l 1061 697 l 782 697 l 782 833 l 506 833 l 506 697 l 367 697 l 367 278 l 506 278 l 506 142 l 782 142 l 782 278 l 1061 278 l 1061 142 m 500 1388 l 779 1388 l 779 1111 l 500 1111 l 500 1388 z "},"ċ":{"ha":1150,"x_min":89,"x_max":1061,"o":"m 1061 142 l 922 142 l 922 0 l 367 0 l 367 142 l 226 142 l 226 278 l 89 278 l 89 697 l 226 697 l 226 833 l 367 833 l 367 974 l 922 974 l 922 833 l 1061 833 l 1061 697 l 782 697 l 782 833 l 506 833 l 506 697 l 367 697 l 367 278 l 506 278 l 506 142 l 782 142 l 782 278 l 1061 278 l 1061 142 m 500 1388 l 779 1388 l 779 1111 l 500 1111 l 500 1388 z "},"Č":{"ha":1150,"x_min":89,"x_max":1061,"o":"m 1061 142 l 922 142 l 922 0 l 367 0 l 367 142 l 226 142 l 226 278 l 89 278 l 89 697 l 226 697 l 226 833 l 367 833 l 367 974 l 922 974 l 922 833 l 1061 833 l 1061 697 l 782 697 l 782 833 l 506 833 l 506 697 l 367 697 l 367 278 l 506 278 l 506 142 l 782 142 l 782 278 l 1061 278 l 1061 142 m 986 1388 l 986 1250 l 849 1250 l 849 1111 l 431 1111 l 431 1250 l 293 1250 l 293 1388 l 569 1388 l 569 1250 l 710 1250 l 710 1388 l 986 1388 z "},"č":{"ha":1150,"x_min":89,"x_max":1061,"o":"m 1061 142 l 922 142 l 922 0 l 367 0 l 367 142 l 226 142 l 226 278 l 89 278 l 89 697 l 226 697 l 226 833 l 367 833 l 367 974 l 922 974 l 922 833 l 1061 833 l 1061 697 l 782 697 l 782 833 l 506 833 l 506 697 l 367 697 l 367 278 l 506 278 l 506 142 l 782 142 l 782 278 l 1061 278 l 1061 142 m 986 1388 l 986 1250 l 849 1250 l 849 1111 l 431 1111 l 431 1250 l 293 1250 l 293 1388 l 569 1388 l 569 1250 l 710 1250 l 710 1388 l 986 1388 z "},"Ď":{"ha":1150,"x_min":89,"x_max":1061,"o":"m 1061 278 l 922 278 l 922 142 l 782 142 l 782 0 l 89 0 l 89 974 l 782 974 l 782 833 l 922 833 l 922 697 l 1061 697 l 1061 278 m 782 278 l 782 697 l 644 697 l 644 833 l 365 833 l 365 142 l 644 142 l 644 278 l 782 278 m 850 1388 l 850 1250 l 713 1250 l 713 1111 l 294 1111 l 294 1250 l 157 1250 l 157 1388 l 433 1388 l 433 1250 l 574 1250 l 574 1388 l 850 1388 z "},"ď":{"ha":1150,"x_min":89,"x_max":1061,"o":"m 1061 278 l 922 278 l 922 142 l 782 142 l 782 0 l 89 0 l 89 974 l 782 974 l 782 833 l 922 833 l 922 697 l 1061 697 l 1061 278 m 782 278 l 782 697 l 644 697 l 644 833 l 365 833 l 365 142 l 644 142 l 644 278 l 782 278 m 850 1388 l 850 1250 l 713 1250 l 713 1111 l 294 1111 l 294 1250 l 157 1250 l 157 1388 l 433 1388 l 433 1250 l 574 1250 l 574 1388 l 850 1388 z "},"Đ":{"ha":1150,"x_min":19,"x_max":1075,"o":"m 1075 278 l 935 278 l 935 142 l 796 142 l 796 0 l 103 0 l 103 417 l 19 417 l 19 557 l 103 557 l 103 974 l 796 974 l 796 833 l 935 833 l 935 697 l 1075 697 l 1075 278 m 514 417 l 379 417 l 379 142 l 658 142 l 658 278 l 796 278 l 796 697 l 658 697 l 658 833 l 379 833 l 379 557 l 514 557 l 514 417 z "},"đ":{"ha":1150,"x_min":19,"x_max":1075,"o":"m 1075 278 l 935 278 l 935 142 l 796 142 l 796 0 l 103 0 l 103 417 l 19 417 l 19 557 l 103 557 l 103 974 l 796 974 l 796 833 l 935 833 l 935 697 l 1075 697 l 1075 278 m 514 417 l 379 417 l 379 142 l 658 142 l 658 278 l 796 278 l 796 697 l 658 697 l 658 833 l 379 833 l 379 557 l 514 557 l 514 417 z "},"Ē":{"ha":1150,"x_min":89,"x_max":1061,"o":"m 1061 0 l 89 0 l 89 974 l 1061 974 l 1061 833 l 365 833 l 365 556 l 922 556 l 922 418 l 365 418 l 365 142 l 1061 142 l 1061 0 m 379 1111 l 379 1247 l 796 1247 l 796 1111 l 379 1111 z "},"ē":{"ha":1150,"x_min":89,"x_max":1061,"o":"m 1061 0 l 89 0 l 89 974 l 1061 974 l 1061 833 l 365 833 l 365 556 l 922 556 l 922 418 l 365 418 l 365 142 l 1061 142 l 1061 0 m 379 1111 l 379 1247 l 796 1247 l 796 1111 l 379 1111 z "},"Ĕ":{"ha":1150,"x_min":89,"x_max":1061,"o":"m 1061 0 l 89 0 l 89 974 l 1061 974 l 1061 833 l 365 833 l 365 556 l 922 556 l 922 418 l 365 418 l 365 142 l 1061 142 l 1061 0 m 865 1388 l 865 1111 l 310 1111 l 310 1388 l 450 1388 l 450 1250 l 726 1250 l 726 1388 l 865 1388 z "},"ĕ":{"ha":1150,"x_min":89,"x_max":1061,"o":"m 1061 0 l 89 0 l 89 974 l 1061 974 l 1061 833 l 365 833 l 365 556 l 922 556 l 922 418 l 365 418 l 365 142 l 1061 142 l 1061 0 m 865 1388 l 865 1111 l 310 1111 l 310 1388 l 450 1388 l 450 1250 l 726 1250 l 726 1388 l 865 1388 z "},"Ė":{"ha":1150,"x_min":89,"x_max":1061,"o":"m 1061 0 l 89 0 l 89 974 l 1061 974 l 1061 833 l 365 833 l 365 556 l 922 556 l 922 418 l 365 418 l 365 142 l 1061 142 l 1061 0 m 449 1388 l 728 1388 l 728 1111 l 449 1111 l 449 1388 z "},"ė":{"ha":1150,"x_min":89,"x_max":1061,"o":"m 1061 0 l 89 0 l 89 974 l 1061 974 l 1061 833 l 365 833 l 365 556 l 922 556 l 922 418 l 365 418 l 365 142 l 1061 142 l 1061 0 m 449 1388 l 728 1388 l 728 1111 l 449 1111 l 449 1388 z "},"Ę":{"ha":1150,"x_min":89,"x_max":1061,"o":"m 644 -276 l 644 0 l 89 0 l 89 974 l 1061 974 l 1061 833 l 365 833 l 365 556 l 922 556 l 922 418 l 365 418 l 365 142 l 1061 142 l 1061 0 l 785 0 l 785 -140 l 1061 -140 l 1061 -276 l 644 -276 z "},"ę":{"ha":1150,"x_min":89,"x_max":1061,"o":"m 644 -276 l 644 0 l 89 0 l 89 974 l 1061 974 l 1061 833 l 365 833 l 365 556 l 922 556 l 922 418 l 365 418 l 365 142 l 1061 142 l 1061 0 l 785 0 l 785 -140 l 1061 -140 l 1061 -276 l 644 -276 z "},"Ě":{"ha":1150,"x_min":89,"x_max":1061,"o":"m 1061 0 l 89 0 l 89 974 l 1061 974 l 1061 833 l 365 833 l 365 556 l 922 556 l 922 418 l 365 418 l 365 142 l 1061 142 l 1061 0 m 935 1388 l 935 1250 l 797 1250 l 797 1111 l 379 1111 l 379 1250 l 242 1250 l 242 1388 l 518 1388 l 518 1250 l 658 1250 l 658 1388 l 935 1388 z "},"ě":{"ha":1150,"x_min":89,"x_max":1061,"o":"m 1061 0 l 89 0 l 89 974 l 1061 974 l 1061 833 l 365 833 l 365 556 l 922 556 l 922 418 l 365 418 l 365 142 l 1061 142 l 1061 0 m 935 1388 l 935 1250 l 797 1250 l 797 1111 l 379 1111 l 379 1250 l 242 1250 l 242 1388 l 518 1388 l 518 1250 l 658 1250 l 658 1388 l 935 1388 z "},"Ğ":{"ha":1150,"x_min":89,"x_max":1061,"o":"m 1061 0 l 367 0 l 367 142 l 226 142 l 226 278 l 89 278 l 89 697 l 226 697 l 226 833 l 367 833 l 367 974 l 1061 974 l 1061 833 l 506 833 l 506 697 l 367 697 l 367 278 l 506 278 l 506 142 l 782 142 l 782 418 l 646 418 l 646 556 l 1061 556 l 1061 0 m 940 1388 l 940 1111 l 385 1111 l 385 1388 l 525 1388 l 525 1250 l 801 1250 l 801 1388 l 940 1388 z "},"ğ":{"ha":1150,"x_min":89,"x_max":1061,"o":"m 1061 0 l 367 0 l 367 142 l 226 142 l 226 278 l 89 278 l 89 697 l 226 697 l 226 833 l 367 833 l 367 974 l 1061 974 l 1061 833 l 506 833 l 506 697 l 367 697 l 367 278 l 506 278 l 506 142 l 782 142 l 782 418 l 646 418 l 646 556 l 1061 556 l 1061 0 m 940 1388 l 940 1111 l 385 1111 l 385 1388 l 525 1388 l 525 1250 l 801 1250 l 801 1388 l 940 1388 z "},"Ġ":{"ha":1150,"x_min":89,"x_max":1061,"o":"m 1061 0 l 367 0 l 367 142 l 226 142 l 226 278 l 89 278 l 89 697 l 226 697 l 226 833 l 367 833 l 367 974 l 1061 974 l 1061 833 l 506 833 l 506 697 l 367 697 l 367 278 l 506 278 l 506 142 l 782 142 l 782 418 l 646 418 l 646 556 l 1061 556 l 1061 0 m 522 1388 l 801 1388 l 801 1111 l 522 1111 l 522 1388 z "},"ġ":{"ha":1150,"x_min":89,"x_max":1061,"o":"m 1061 0 l 367 0 l 367 142 l 226 142 l 226 278 l 89 278 l 89 697 l 226 697 l 226 833 l 367 833 l 367 974 l 1061 974 l 1061 833 l 506 833 l 506 697 l 367 697 l 367 278 l 506 278 l 506 142 l 782 142 l 782 418 l 646 418 l 646 556 l 1061 556 l 1061 0 m 522 1388 l 801 1388 l 801 1111 l 522 1111 l 522 1388 z "},"Ģ":{"ha":1150,"x_min":89,"x_max":1061,"o":"m 371 -276 l 371 -140 l 508 -140 l 508 0 l 367 0 l 367 142 l 226 142 l 226 278 l 89 278 l 89 697 l 226 697 l 226 833 l 367 833 l 367 974 l 1061 974 l 1061 833 l 506 833 l 506 697 l 367 697 l 367 278 l 506 278 l 506 142 l 782 142 l 782 418 l 646 418 l 646 556 l 1061 556 l 1061 0 l 788 0 l 788 -140 l 647 -140 l 647 -276 l 371 -276 z "},"ģ":{"ha":1150,"x_min":89,"x_max":1061,"o":"m 371 -276 l 371 -140 l 508 -140 l 508 0 l 367 0 l 367 142 l 226 142 l 226 278 l 89 278 l 89 697 l 226 697 l 226 833 l 367 833 l 367 974 l 1061 974 l 1061 833 l 506 833 l 506 697 l 367 697 l 367 278 l 506 278 l 506 142 l 782 142 l 782 418 l 646 418 l 646 556 l 1061 556 l 1061 0 l 788 0 l 788 -140 l 647 -140 l 647 -276 l 371 -276 z "},"Ħ":{"ha":1150,"x_min":0,"x_max":1150,"o":"m 1061 690 l 1061 0 l 782 0 l 782 418 l 365 418 l 365 0 l 89 0 l 89 690 l 0 690 l 0 826 l 89 826 l 89 974 l 365 974 l 365 826 l 782 826 l 782 974 l 1061 974 l 1061 826 l 1150 826 l 1150 690 l 1061 690 m 782 556 l 782 690 l 365 690 l 365 556 l 782 556 z "},"ħ":{"ha":1150,"x_min":0,"x_max":1150,"o":"m 1061 690 l 1061 0 l 782 0 l 782 418 l 365 418 l 365 0 l 89 0 l 89 690 l 0 690 l 0 826 l 89 826 l 89 974 l 365 974 l 365 826 l 782 826 l 782 974 l 1061 974 l 1061 826 l 1150 826 l 1150 690 l 1061 690 m 782 556 l 782 690 l 365 690 l 365 556 l 782 556 z "},"Ī":{"ha":1150,"x_min":151,"x_max":999,"o":"m 999 833 l 707 833 l 707 142 l 985 142 l 985 0 l 151 0 l 151 142 l 429 142 l 429 833 l 151 833 l 151 974 l 999 974 l 999 833 m 368 1111 l 368 1247 l 785 1247 l 785 1111 l 368 1111 z "},"ī":{"ha":1150,"x_min":151,"x_max":999,"o":"m 999 833 l 707 833 l 707 142 l 985 142 l 985 0 l 151 0 l 151 142 l 429 142 l 429 833 l 151 833 l 151 974 l 999 974 l 999 833 m 368 1111 l 368 1247 l 785 1247 l 785 1111 l 368 1111 z "},"Ĭ":{"ha":1150,"x_min":151,"x_max":999,"o":"m 999 833 l 707 833 l 707 142 l 985 142 l 985 0 l 151 0 l 151 142 l 429 142 l 429 833 l 151 833 l 151 974 l 999 974 l 999 833 m 854 1388 l 854 1111 l 299 1111 l 299 1388 l 439 1388 l 439 1250 l 715 1250 l 715 1388 l 854 1388 z "},"ĭ":{"ha":1150,"x_min":151,"x_max":999,"o":"m 999 833 l 707 833 l 707 142 l 985 142 l 985 0 l 151 0 l 151 142 l 429 142 l 429 833 l 151 833 l 151 974 l 999 974 l 999 833 m 854 1388 l 854 1111 l 299 1111 l 299 1388 l 439 1388 l 439 1250 l 715 1250 l 715 1388 l 854 1388 z "},"Į":{"ha":1150,"x_min":151,"x_max":999,"o":"m 567 -276 l 567 0 l 151 0 l 151 142 l 429 142 l 429 833 l 151 833 l 151 974 l 999 974 l 999 833 l 707 833 l 707 142 l 985 142 l 985 0 l 707 0 l 707 -140 l 983 -140 l 983 -276 l 567 -276 z "},"į":{"ha":1150,"x_min":151,"x_max":999,"o":"m 567 -276 l 567 0 l 151 0 l 151 142 l 429 142 l 429 833 l 151 833 l 151 974 l 999 974 l 999 833 l 707 833 l 707 142 l 985 142 l 985 0 l 707 0 l 707 -140 l 983 -140 l 983 -276 l 567 -276 z "},"İ":{"ha":1150,"x_min":151,"x_max":999,"o":"m 999 833 l 707 833 l 707 142 l 985 142 l 985 0 l 151 0 l 151 142 l 429 142 l 429 833 l 151 833 l 151 974 l 999 974 l 999 833 m 436 1388 l 715 1388 l 715 1111 l 436 1111 l 436 1388 z "},"ı":{"ha":1150,"x_min":151,"x_max":999,"o":"m 999 833 l 707 833 l 707 142 l 985 142 l 985 0 l 151 0 l 151 142 l 429 142 l 429 833 l 151 833 l 151 974 l 999 974 l 999 833 z "},"Ĳ":{"ha":1150,"x_min":49,"x_max":1101,"o":"m 326 974 l 326 0 l 49 0 l 49 974 l 326 974 m 1101 142 l 961 142 l 961 0 l 518 0 l 518 142 l 382 142 l 382 278 l 658 278 l 658 142 l 822 142 l 822 974 l 1101 974 l 1101 142 z "},"ĳ":{"ha":1150,"x_min":49,"x_max":1101,"o":"m 326 974 l 326 0 l 49 0 l 49 974 l 326 974 m 1101 142 l 961 142 l 961 0 l 518 0 l 518 142 l 382 142 l 382 278 l 658 278 l 658 142 l 822 142 l 822 974 l 1101 974 l 1101 142 z "},"Ķ":{"ha":1150,"x_min":89,"x_max":1061,"o":"m 1061 0 l 644 0 l 644 142 l 506 142 l 506 278 l 365 278 l 365 0 l 89 0 l 89 974 l 365 974 l 365 556 l 506 556 l 506 697 l 644 697 l 644 833 l 782 833 l 782 974 l 1061 974 l 1061 833 l 922 833 l 922 697 l 782 697 l 782 556 l 644 556 l 644 418 l 782 418 l 782 278 l 922 278 l 922 142 l 1061 142 l 1061 0 m 229 -276 l 229 -140 l 367 -140 l 367 0 l 646 0 l 646 -140 l 506 -140 l 506 -276 l 229 -276 z "},"ķ":{"ha":1150,"x_min":89,"x_max":1061,"o":"m 1061 0 l 644 0 l 644 142 l 506 142 l 506 278 l 365 278 l 365 0 l 89 0 l 89 974 l 365 974 l 365 556 l 506 556 l 506 697 l 644 697 l 644 833 l 782 833 l 782 974 l 1061 974 l 1061 833 l 922 833 l 922 697 l 782 697 l 782 556 l 644 556 l 644 418 l 782 418 l 782 278 l 922 278 l 922 142 l 1061 142 l 1061 0 m 229 -276 l 229 -140 l 367 -140 l 367 0 l 646 0 l 646 -140 l 506 -140 l 506 -276 l 229 -276 z "},"Ĺ":{"ha":1150,"x_min":88,"x_max":1060,"o":"m 1060 0 l 88 0 l 88 974 l 364 974 l 364 142 l 1060 142 l 1060 0 m 90 1111 l 90 1247 l 228 1247 l 228 1388 l 507 1388 l 507 1247 l 367 1247 l 367 1111 l 90 1111 z "},"ĺ":{"ha":1150,"x_min":88,"x_max":1060,"o":"m 1060 0 l 88 0 l 88 974 l 364 974 l 364 142 l 1060 142 l 1060 0 m 90 1111 l 90 1247 l 228 1247 l 228 1388 l 507 1388 l 507 1247 l 367 1247 l 367 1111 l 90 1111 z "},"Ļ":{"ha":1150,"x_min":89,"x_max":1061,"o":"m 342 -276 l 342 -140 l 479 -140 l 479 0 l 89 0 l 89 974 l 365 974 l 365 142 l 1061 142 l 1061 0 l 758 0 l 758 -140 l 618 -140 l 618 -276 l 342 -276 z "},"ļ":{"ha":1150,"x_min":89,"x_max":1061,"o":"m 342 -276 l 342 -140 l 479 -140 l 479 0 l 89 0 l 89 974 l 365 974 l 365 142 l 1061 142 l 1061 0 l 758 0 l 758 -140 l 618 -140 l 618 -276 l 342 -276 z "},"Ľ":{"ha":1150,"x_min":89,"x_max":1061,"o":"m 354 -276 l 354 -140 l 492 -140 l 492 0 l 89 0 l 89 974 l 365 974 l 365 142 l 1061 142 l 1061 0 l 771 0 l 771 -140 l 631 -140 l 631 -276 l 354 -276 z "},"ľ":{"ha":1150,"x_min":89,"x_max":1061,"o":"m 354 -276 l 354 -140 l 492 -140 l 492 0 l 89 0 l 89 974 l 365 974 l 365 142 l 1061 142 l 1061 0 l 771 0 l 771 -140 l 631 -140 l 631 -276 l 354 -276 z "},"Ŀ":{"ha":1150,"x_min":89,"x_max":1061,"o":"m 1061 0 l 89 0 l 89 974 l 365 974 l 365 142 l 1061 142 l 1061 0 m 501 647 l 781 647 l 781 371 l 501 371 l 501 647 z "},"ŀ":{"ha":1150,"x_min":89,"x_max":1061,"o":"m 1061 0 l 89 0 l 89 974 l 365 974 l 365 142 l 1061 142 l 1061 0 m 501 647 l 781 647 l 781 371 l 501 371 l 501 647 z "},"Ł":{"ha":1150,"x_min":0,"x_max":1108,"o":"m 1108 0 l 136 0 l 136 276 l 0 276 l 0 418 l 136 418 l 136 974 l 413 974 l 413 700 l 551 700 l 551 558 l 413 558 l 413 142 l 1108 142 l 1108 0 z "},"ł":{"ha":1150,"x_min":0,"x_max":1108,"o":"m 1108 0 l 136 0 l 136 276 l 0 276 l 0 418 l 136 418 l 136 974 l 413 974 l 413 700 l 551 700 l 551 558 l 413 558 l 413 142 l 1108 142 l 1108 0 z "},"Ń":{"ha":1150,"x_min":89,"x_max":1061,"o":"m 1061 0 l 782 0 l 782 142 l 644 142 l 644 278 l 506 278 l 506 418 l 365 418 l 365 0 l 89 0 l 89 974 l 365 974 l 365 833 l 506 833 l 506 697 l 644 697 l 644 556 l 782 556 l 782 974 l 1061 974 l 1061 0 m 422 1111 l 422 1247 l 560 1247 l 560 1388 l 839 1388 l 839 1247 l 699 1247 l 699 1111 l 422 1111 z "},"ń":{"ha":1150,"x_min":89,"x_max":1061,"o":"m 1061 0 l 782 0 l 782 142 l 644 142 l 644 278 l 506 278 l 506 418 l 365 418 l 365 0 l 89 0 l 89 974 l 365 974 l 365 833 l 506 833 l 506 697 l 644 697 l 644 556 l 782 556 l 782 974 l 1061 974 l 1061 0 m 422 1111 l 422 1247 l 560 1247 l 560 1388 l 839 1388 l 839 1247 l 699 1247 l 699 1111 l 422 1111 z "},"Ņ":{"ha":1150,"x_min":89,"x_max":1061,"o":"m 1061 0 l 782 0 l 782 142 l 644 142 l 644 278 l 506 278 l 506 418 l 365 418 l 365 0 l 89 0 l 89 974 l 365 974 l 365 833 l 506 833 l 506 697 l 644 697 l 644 556 l 782 556 l 782 974 l 1061 974 l 1061 0 m 299 -276 l 299 -140 l 436 -140 l 436 0 l 715 0 l 715 -140 l 575 -140 l 575 -276 l 299 -276 z "},"ņ":{"ha":1150,"x_min":89,"x_max":1061,"o":"m 1061 0 l 782 0 l 782 142 l 644 142 l 644 278 l 506 278 l 506 418 l 365 418 l 365 0 l 89 0 l 89 974 l 365 974 l 365 833 l 506 833 l 506 697 l 644 697 l 644 556 l 782 556 l 782 974 l 1061 974 l 1061 0 m 299 -276 l 299 -140 l 436 -140 l 436 0 l 715 0 l 715 -140 l 575 -140 l 575 -276 l 299 -276 z "},"Ň":{"ha":1150,"x_min":89,"x_max":1061,"o":"m 1061 0 l 782 0 l 782 142 l 644 142 l 644 278 l 506 278 l 506 418 l 365 418 l 365 0 l 89 0 l 89 974 l 365 974 l 365 833 l 506 833 l 506 697 l 644 697 l 644 556 l 782 556 l 782 974 l 1061 974 l 1061 0 m 921 1388 l 921 1250 l 783 1250 l 783 1111 l 365 1111 l 365 1250 l 228 1250 l 228 1388 l 504 1388 l 504 1250 l 644 1250 l 644 1388 l 921 1388 z "},"ň":{"ha":1150,"x_min":89,"x_max":1061,"o":"m 1061 0 l 782 0 l 782 142 l 644 142 l 644 278 l 506 278 l 506 418 l 365 418 l 365 0 l 89 0 l 89 974 l 365 974 l 365 833 l 506 833 l 506 697 l 644 697 l 644 556 l 782 556 l 782 974 l 1061 974 l 1061 0 m 921 1388 l 921 1250 l 783 1250 l 783 1111 l 365 1111 l 365 1250 l 228 1250 l 228 1388 l 504 1388 l 504 1250 l 644 1250 l 644 1388 l 921 1388 z "},"Ŋ":{"ha":1150,"x_min":89,"x_max":1061,"o":"m 1061 -135 l 921 -135 l 921 -276 l 506 -276 l 506 -135 l 782 -135 l 782 142 l 644 142 l 644 278 l 506 278 l 506 418 l 365 418 l 365 0 l 89 0 l 89 974 l 365 974 l 365 833 l 506 833 l 506 697 l 644 697 l 644 556 l 782 556 l 782 974 l 1061 974 l 1061 -135 z "},"ŋ":{"ha":1150,"x_min":89,"x_max":1061,"o":"m 1061 -135 l 921 -135 l 921 -276 l 506 -276 l 506 -135 l 782 -135 l 782 142 l 644 142 l 644 278 l 506 278 l 506 418 l 365 418 l 365 0 l 89 0 l 89 974 l 365 974 l 365 833 l 506 833 l 506 697 l 644 697 l 644 556 l 782 556 l 782 974 l 1061 974 l 1061 -135 z "},"Ō":{"ha":1150,"x_min":89,"x_max":1061,"o":"m 1061 142 l 922 142 l 922 0 l 226 0 l 226 142 l 89 142 l 89 833 l 226 833 l 226 974 l 922 974 l 922 833 l 1061 833 l 1061 142 m 782 142 l 782 833 l 365 833 l 365 142 l 782 142 m 367 1111 l 367 1247 l 783 1247 l 783 1111 l 367 1111 z "},"ō":{"ha":1150,"x_min":89,"x_max":1061,"o":"m 1061 142 l 922 142 l 922 0 l 226 0 l 226 142 l 89 142 l 89 833 l 226 833 l 226 974 l 922 974 l 922 833 l 1061 833 l 1061 142 m 782 142 l 782 833 l 365 833 l 365 142 l 782 142 m 367 1111 l 367 1247 l 783 1247 l 783 1111 l 367 1111 z "},"Ŏ":{"ha":1150,"x_min":89,"x_max":1061,"o":"m 1061 142 l 922 142 l 922 0 l 226 0 l 226 142 l 89 142 l 89 833 l 226 833 l 226 974 l 922 974 l 922 833 l 1061 833 l 1061 142 m 782 142 l 782 833 l 365 833 l 365 142 l 782 142 m 853 1388 l 853 1111 l 297 1111 l 297 1388 l 438 1388 l 438 1250 l 714 1250 l 714 1388 l 853 1388 z "},"ŏ":{"ha":1150,"x_min":89,"x_max":1061,"o":"m 1061 142 l 922 142 l 922 0 l 226 0 l 226 142 l 89 142 l 89 833 l 226 833 l 226 974 l 922 974 l 922 833 l 1061 833 l 1061 142 m 782 142 l 782 833 l 365 833 l 365 142 l 782 142 m 853 1388 l 853 1111 l 297 1111 l 297 1388 l 438 1388 l 438 1250 l 714 1250 l 714 1388 l 853 1388 z "},"Ő":{"ha":1150,"x_min":89,"x_max":1061,"o":"m 1061 142 l 922 142 l 922 0 l 226 0 l 226 142 l 89 142 l 89 833 l 226 833 l 226 974 l 922 974 l 922 833 l 1061 833 l 1061 142 m 782 142 l 782 833 l 365 833 l 365 142 l 782 142 m 228 1111 l 228 1247 l 365 1247 l 365 1388 l 644 1388 l 644 1247 l 504 1247 l 504 1111 l 228 1111 m 644 1111 l 644 1247 l 782 1247 l 782 1388 l 1061 1388 l 1061 1247 l 921 1247 l 921 1111 l 644 1111 z "},"ő":{"ha":1150,"x_min":89,"x_max":1061,"o":"m 1061 142 l 922 142 l 922 0 l 226 0 l 226 142 l 89 142 l 89 833 l 226 833 l 226 974 l 922 974 l 922 833 l 1061 833 l 1061 142 m 782 142 l 782 833 l 365 833 l 365 142 l 782 142 m 228 1111 l 228 1247 l 365 1247 l 365 1388 l 644 1388 l 644 1247 l 504 1247 l 504 1111 l 228 1111 m 644 1111 l 644 1247 l 782 1247 l 782 1388 l 1061 1388 l 1061 1247 l 921 1247 l 921 1111 l 644 1111 z "},"Œ":{"ha":1150,"x_min":11,"x_max":1118,"o":"m 1118 0 l 150 0 l 150 142 l 11 142 l 11 833 l 150 833 l 150 974 l 1118 974 l 1118 833 l 771 833 l 771 556 l 1049 556 l 1049 418 l 771 418 l 771 142 l 1118 142 l 1118 0 m 492 142 l 492 833 l 289 833 l 289 142 l 492 142 z "},"œ":{"ha":1150,"x_min":11,"x_max":1118,"o":"m 1118 0 l 150 0 l 150 142 l 11 142 l 11 833 l 150 833 l 150 974 l 1118 974 l 1118 833 l 771 833 l 771 556 l 1049 556 l 1049 418 l 771 418 l 771 142 l 1118 142 l 1118 0 m 492 142 l 492 833 l 289 833 l 289 142 l 492 142 z "},"Ŕ":{"ha":1150,"x_min":89,"x_max":1061,"o":"m 1061 0 l 644 0 l 644 142 l 506 142 l 506 278 l 365 278 l 365 0 l 89 0 l 89 974 l 922 974 l 922 833 l 1061 833 l 1061 418 l 782 418 l 782 278 l 922 278 l 922 142 l 1061 142 l 1061 0 m 782 556 l 782 833 l 365 833 l 365 418 l 644 418 l 644 556 l 782 556 m 379 1111 l 379 1247 l 517 1247 l 517 1388 l 796 1388 l 796 1247 l 656 1247 l 656 1111 l 379 1111 z "},"ŕ":{"ha":1150,"x_min":89,"x_max":1061,"o":"m 1061 0 l 644 0 l 644 142 l 506 142 l 506 278 l 365 278 l 365 0 l 89 0 l 89 974 l 922 974 l 922 833 l 1061 833 l 1061 418 l 782 418 l 782 278 l 922 278 l 922 142 l 1061 142 l 1061 0 m 782 556 l 782 833 l 365 833 l 365 418 l 644 418 l 644 556 l 782 556 m 379 1111 l 379 1247 l 517 1247 l 517 1388 l 796 1388 l 796 1247 l 656 1247 l 656 1111 l 379 1111 z "},"Ŗ":{"ha":1150,"x_min":89,"x_max":1061,"o":"m 1061 0 l 644 0 l 644 142 l 506 142 l 506 278 l 365 278 l 365 0 l 89 0 l 89 974 l 922 974 l 922 833 l 1061 833 l 1061 418 l 782 418 l 782 278 l 922 278 l 922 142 l 1061 142 l 1061 0 m 782 556 l 782 833 l 365 833 l 365 418 l 644 418 l 644 556 l 782 556 m 229 -276 l 229 -140 l 367 -140 l 367 0 l 646 0 l 646 -140 l 506 -140 l 506 -276 l 229 -276 z "},"ŗ":{"ha":1150,"x_min":89,"x_max":1061,"o":"m 1061 0 l 644 0 l 644 142 l 506 142 l 506 278 l 365 278 l 365 0 l 89 0 l 89 974 l 922 974 l 922 833 l 1061 833 l 1061 418 l 782 418 l 782 278 l 922 278 l 922 142 l 1061 142 l 1061 0 m 782 556 l 782 833 l 365 833 l 365 418 l 644 418 l 644 556 l 782 556 m 229 -276 l 229 -140 l 367 -140 l 367 0 l 646 0 l 646 -140 l 506 -140 l 506 -276 l 229 -276 z "},"Ř":{"ha":1150,"x_min":89,"x_max":1061,"o":"m 1061 0 l 644 0 l 644 142 l 506 142 l 506 278 l 365 278 l 365 0 l 89 0 l 89 974 l 922 974 l 922 833 l 1061 833 l 1061 418 l 782 418 l 782 278 l 922 278 l 922 142 l 1061 142 l 1061 0 m 782 556 l 782 833 l 365 833 l 365 418 l 644 418 l 644 556 l 782 556 m 879 1388 l 879 1250 l 742 1250 l 742 1111 l 324 1111 l 324 1250 l 186 1250 l 186 1388 l 463 1388 l 463 1250 l 603 1250 l 603 1388 l 879 1388 z "},"ř":{"ha":1150,"x_min":89,"x_max":1061,"o":"m 1061 0 l 644 0 l 644 142 l 506 142 l 506 278 l 365 278 l 365 0 l 89 0 l 89 974 l 922 974 l 922 833 l 1061 833 l 1061 418 l 782 418 l 782 278 l 922 278 l 922 142 l 1061 142 l 1061 0 m 782 556 l 782 833 l 365 833 l 365 418 l 644 418 l 644 556 l 782 556 m 879 1388 l 879 1250 l 742 1250 l 742 1111 l 324 1111 l 324 1250 l 186 1250 l 186 1388 l 463 1388 l 463 1250 l 603 1250 l 603 1388 l 879 1388 z "},"Ś":{"ha":1150,"x_min":89,"x_max":1061,"o":"m 1061 142 l 921 142 l 921 0 l 225 0 l 225 142 l 89 142 l 89 278 l 365 278 l 365 142 l 782 142 l 782 418 l 225 418 l 225 556 l 89 556 l 89 833 l 225 833 l 225 974 l 782 974 l 782 833 l 921 833 l 921 697 l 644 697 l 644 833 l 365 833 l 365 556 l 921 556 l 921 418 l 1061 418 l 1061 142 m 364 1111 l 364 1247 l 501 1247 l 501 1388 l 781 1388 l 781 1247 l 640 1247 l 640 1111 l 364 1111 z "},"ś":{"ha":1150,"x_min":89,"x_max":1061,"o":"m 1061 142 l 921 142 l 921 0 l 225 0 l 225 142 l 89 142 l 89 278 l 365 278 l 365 142 l 782 142 l 782 418 l 225 418 l 225 556 l 89 556 l 89 833 l 225 833 l 225 974 l 782 974 l 782 833 l 921 833 l 921 697 l 644 697 l 644 833 l 365 833 l 365 556 l 921 556 l 921 418 l 1061 418 l 1061 142 m 364 1111 l 364 1247 l 501 1247 l 501 1388 l 781 1388 l 781 1247 l 640 1247 l 640 1111 l 364 1111 z "},"Ş":{"ha":1150,"x_min":89,"x_max":1061,"o":"m 367 -276 l 367 -140 l 504 -140 l 504 0 l 225 0 l 225 142 l 89 142 l 89 278 l 365 278 l 365 142 l 782 142 l 782 418 l 225 418 l 225 556 l 89 556 l 89 833 l 225 833 l 225 974 l 782 974 l 782 833 l 921 833 l 921 697 l 644 697 l 644 833 l 365 833 l 365 556 l 921 556 l 921 418 l 1061 418 l 1061 142 l 921 142 l 921 0 l 783 0 l 783 -140 l 643 -140 l 643 -276 l 367 -276 z "},"ş":{"ha":1150,"x_min":89,"x_max":1061,"o":"m 367 -276 l 367 -140 l 504 -140 l 504 0 l 225 0 l 225 142 l 89 142 l 89 278 l 365 278 l 365 142 l 782 142 l 782 418 l 225 418 l 225 556 l 89 556 l 89 833 l 225 833 l 225 974 l 782 974 l 782 833 l 921 833 l 921 697 l 644 697 l 644 833 l 365 833 l 365 556 l 921 556 l 921 418 l 1061 418 l 1061 142 l 921 142 l 921 0 l 783 0 l 783 -140 l 643 -140 l 643 -276 l 367 -276 z "},"Š":{"ha":1150,"x_min":89,"x_max":1061,"o":"m 1061 142 l 921 142 l 921 0 l 225 0 l 225 142 l 89 142 l 89 278 l 365 278 l 365 142 l 782 142 l 782 418 l 225 418 l 225 556 l 89 556 l 89 833 l 225 833 l 225 974 l 782 974 l 782 833 l 921 833 l 921 697 l 644 697 l 644 833 l 365 833 l 365 556 l 921 556 l 921 418 l 1061 418 l 1061 142 m 921 1388 l 921 1250 l 783 1250 l 783 1111 l 365 1111 l 365 1250 l 228 1250 l 228 1388 l 504 1388 l 504 1250 l 644 1250 l 644 1388 l 921 1388 z "},"š":{"ha":1150,"x_min":89,"x_max":1061,"o":"m 1061 142 l 921 142 l 921 0 l 225 0 l 225 142 l 89 142 l 89 278 l 365 278 l 365 142 l 782 142 l 782 418 l 225 418 l 225 556 l 89 556 l 89 833 l 225 833 l 225 974 l 782 974 l 782 833 l 921 833 l 921 697 l 644 697 l 644 833 l 365 833 l 365 556 l 921 556 l 921 418 l 1061 418 l 1061 142 m 921 1388 l 921 1250 l 783 1250 l 783 1111 l 365 1111 l 365 1250 l 228 1250 l 228 1388 l 504 1388 l 504 1250 l 644 1250 l 644 1388 l 921 1388 z "},"Ţ":{"ha":1150,"x_min":157,"x_max":992,"o":"m 299 -276 l 299 -140 l 436 -140 l 436 833 l 157 833 l 157 974 l 992 974 l 992 833 l 714 833 l 714 -140 l 575 -140 l 575 -276 l 299 -276 z "},"ţ":{"ha":1150,"x_min":157,"x_max":992,"o":"m 299 -276 l 299 -140 l 436 -140 l 436 833 l 157 833 l 157 974 l 992 974 l 992 833 l 714 833 l 714 -140 l 575 -140 l 575 -276 l 299 -276 z "},"Ť":{"ha":1150,"x_min":157,"x_max":992,"o":"m 992 833 l 714 833 l 714 0 l 436 0 l 436 833 l 157 833 l 157 974 l 992 974 l 992 833 m 921 1388 l 921 1250 l 783 1250 l 783 1111 l 365 1111 l 365 1250 l 228 1250 l 228 1388 l 504 1388 l 504 1250 l 644 1250 l 644 1388 l 921 1388 z "},"ť":{"ha":1150,"x_min":157,"x_max":992,"o":"m 992 833 l 714 833 l 714 0 l 436 0 l 436 833 l 157 833 l 157 974 l 992 974 l 992 833 m 921 1388 l 921 1250 l 783 1250 l 783 1111 l 365 1111 l 365 1250 l 228 1250 l 228 1388 l 504 1388 l 504 1250 l 644 1250 l 644 1388 l 921 1388 z "},"Ŧ":{"ha":1150,"x_min":157,"x_max":992,"o":"m 922 418 l 714 418 l 714 0 l 436 0 l 436 418 l 226 418 l 226 558 l 436 558 l 436 833 l 157 833 l 157 974 l 992 974 l 992 833 l 714 833 l 714 558 l 922 558 l 922 418 z "},"ŧ":{"ha":1150,"x_min":157,"x_max":992,"o":"m 922 418 l 714 418 l 714 0 l 436 0 l 436 418 l 226 418 l 226 558 l 436 558 l 436 833 l 157 833 l 157 974 l 992 974 l 992 833 l 714 833 l 714 558 l 922 558 l 922 418 z "},"Ũ":{"ha":1150,"x_min":89,"x_max":1061,"o":"m 1061 142 l 922 142 l 922 0 l 226 0 l 226 142 l 89 142 l 89 974 l 365 974 l 365 142 l 782 142 l 782 974 l 1061 974 l 1061 142 m 297 1111 l 297 1247 l 438 1247 l 438 1388 l 576 1388 l 576 1247 l 438 1247 l 438 1111 l 297 1111 m 576 1111 l 576 1247 l 714 1247 l 714 1388 l 853 1388 l 853 1247 l 714 1247 l 714 1111 l 576 1111 z "},"ũ":{"ha":1150,"x_min":89,"x_max":1061,"o":"m 1061 142 l 922 142 l 922 0 l 226 0 l 226 142 l 89 142 l 89 974 l 365 974 l 365 142 l 782 142 l 782 974 l 1061 974 l 1061 142 m 297 1111 l 297 1247 l 438 1247 l 438 1388 l 576 1388 l 576 1247 l 438 1247 l 438 1111 l 297 1111 m 576 1111 l 576 1247 l 714 1247 l 714 1388 l 853 1388 l 853 1247 l 714 1247 l 714 1111 l 576 1111 z "},"Ū":{"ha":1150,"x_min":89,"x_max":1061,"o":"m 1061 142 l 922 142 l 922 0 l 226 0 l 226 142 l 89 142 l 89 974 l 365 974 l 365 142 l 782 142 l 782 974 l 1061 974 l 1061 142 m 367 1111 l 367 1247 l 783 1247 l 783 1111 l 367 1111 z "},"ū":{"ha":1150,"x_min":89,"x_max":1061,"o":"m 1061 142 l 922 142 l 922 0 l 226 0 l 226 142 l 89 142 l 89 974 l 365 974 l 365 142 l 782 142 l 782 974 l 1061 974 l 1061 142 m 367 1111 l 367 1247 l 783 1247 l 783 1111 l 367 1111 z "},"Ŭ":{"ha":1150,"x_min":89,"x_max":1061,"o":"m 1061 142 l 922 142 l 922 0 l 226 0 l 226 142 l 89 142 l 89 974 l 365 974 l 365 142 l 782 142 l 782 974 l 1061 974 l 1061 142 m 853 1388 l 853 1111 l 297 1111 l 297 1388 l 438 1388 l 438 1250 l 714 1250 l 714 1388 l 853 1388 z "},"ŭ":{"ha":1150,"x_min":89,"x_max":1061,"o":"m 1061 142 l 922 142 l 922 0 l 226 0 l 226 142 l 89 142 l 89 974 l 365 974 l 365 142 l 782 142 l 782 974 l 1061 974 l 1061 142 m 853 1388 l 853 1111 l 297 1111 l 297 1388 l 438 1388 l 438 1250 l 714 1250 l 714 1388 l 853 1388 z "},"Ů":{"ha":1150,"x_min":89,"x_max":1061,"o":"m 1061 142 l 922 142 l 922 0 l 226 0 l 226 142 l 89 142 l 89 974 l 365 974 l 365 142 l 782 142 l 782 974 l 1061 974 l 1061 142 m 785 974 l 365 974 l 365 1390 l 785 1390 l 785 974 m 644 1114 l 644 1250 l 506 1250 l 506 1114 l 644 1114 z "},"ů":{"ha":1150,"x_min":89,"x_max":1061,"o":"m 1061 142 l 922 142 l 922 0 l 226 0 l 226 142 l 89 142 l 89 974 l 365 974 l 365 142 l 782 142 l 782 974 l 1061 974 l 1061 142 m 785 974 l 365 974 l 365 1390 l 785 1390 l 785 974 m 644 1114 l 644 1250 l 506 1250 l 506 1114 l 644 1114 z "},"Ű":{"ha":1150,"x_min":89,"x_max":1061,"o":"m 1061 142 l 922 142 l 922 0 l 226 0 l 226 142 l 89 142 l 89 974 l 365 974 l 365 142 l 782 142 l 782 974 l 1061 974 l 1061 142 m 214 1111 l 214 1247 l 351 1247 l 351 1388 l 631 1388 l 631 1247 l 490 1247 l 490 1111 l 214 1111 m 631 1111 l 631 1247 l 768 1247 l 768 1388 l 1047 1388 l 1047 1247 l 907 1247 l 907 1111 l 631 1111 z "},"ű":{"ha":1150,"x_min":89,"x_max":1061,"o":"m 1061 142 l 922 142 l 922 0 l 226 0 l 226 142 l 89 142 l 89 974 l 365 974 l 365 142 l 782 142 l 782 974 l 1061 974 l 1061 142 m 214 1111 l 214 1247 l 351 1247 l 351 1388 l 631 1388 l 631 1247 l 490 1247 l 490 1111 l 214 1111 m 631 1111 l 631 1247 l 768 1247 l 768 1388 l 1047 1388 l 1047 1247 l 907 1247 l 907 1111 l 631 1111 z "},"Ų":{"ha":1150,"x_min":89,"x_max":1061,"o":"m 504 -276 l 504 0 l 226 0 l 226 142 l 89 142 l 89 974 l 365 974 l 365 142 l 782 142 l 782 974 l 1061 974 l 1061 142 l 922 142 l 922 0 l 644 0 l 644 -140 l 921 -140 l 921 -276 l 504 -276 z "},"ų":{"ha":1150,"x_min":89,"x_max":1061,"o":"m 504 -276 l 504 0 l 226 0 l 226 142 l 89 142 l 89 974 l 365 974 l 365 142 l 782 142 l 782 974 l 1061 974 l 1061 142 l 922 142 l 922 0 l 644 0 l 644 -140 l 921 -140 l 921 -276 l 504 -276 z "},"Ŵ":{"ha":1150,"x_min":89,"x_max":1061,"o":"m 1061 0 l 782 0 l 782 142 l 644 142 l 644 278 l 506 278 l 506 142 l 365 142 l 365 0 l 89 0 l 89 974 l 365 974 l 365 556 l 506 556 l 506 697 l 644 697 l 644 556 l 782 556 l 782 974 l 1061 974 l 1061 0 m 228 1111 l 228 1247 l 365 1247 l 365 1388 l 783 1388 l 783 1247 l 921 1247 l 921 1111 l 644 1111 l 644 1247 l 504 1247 l 504 1111 l 228 1111 z "},"ŵ":{"ha":1150,"x_min":89,"x_max":1061,"o":"m 1061 0 l 782 0 l 782 142 l 644 142 l 644 278 l 506 278 l 506 142 l 365 142 l 365 0 l 89 0 l 89 974 l 365 974 l 365 556 l 506 556 l 506 697 l 644 697 l 644 556 l 782 556 l 782 974 l 1061 974 l 1061 0 m 228 1111 l 228 1247 l 365 1247 l 365 1388 l 783 1388 l 783 1247 l 921 1247 l 921 1111 l 644 1111 l 644 1247 l 504 1247 l 504 1111 l 228 1111 z "},"Ŷ":{"ha":1150,"x_min":158,"x_max":992,"o":"m 992 556 l 853 556 l 853 418 l 714 418 l 714 0 l 435 0 l 435 418 l 296 418 l 296 556 l 158 556 l 158 974 l 435 974 l 435 556 l 714 556 l 714 974 l 992 974 l 992 556 m 228 1111 l 228 1247 l 365 1247 l 365 1388 l 783 1388 l 783 1247 l 921 1247 l 921 1111 l 644 1111 l 644 1247 l 504 1247 l 504 1111 l 228 1111 z "},"ŷ":{"ha":1150,"x_min":158,"x_max":992,"o":"m 992 556 l 853 556 l 853 418 l 714 418 l 714 0 l 435 0 l 435 418 l 296 418 l 296 556 l 158 556 l 158 974 l 435 974 l 435 556 l 714 556 l 714 974 l 992 974 l 992 556 m 228 1111 l 228 1247 l 365 1247 l 365 1388 l 783 1388 l 783 1247 l 921 1247 l 921 1111 l 644 1111 l 644 1247 l 504 1247 l 504 1111 l 228 1111 z "},"Ÿ":{"ha":1150,"x_min":158,"x_max":992,"o":"m 992 556 l 853 556 l 853 418 l 714 418 l 714 0 l 435 0 l 435 418 l 296 418 l 296 556 l 158 556 l 158 974 l 435 974 l 435 556 l 714 556 l 714 974 l 992 974 l 992 556 m 922 1388 l 922 1111 l 643 1111 l 643 1388 l 922 1388 m 226 1388 l 506 1388 l 506 1111 l 226 1111 l 226 1388 z "},"Ź":{"ha":1150,"x_min":89,"x_max":1061,"o":"m 1061 0 l 89 0 l 89 278 l 226 278 l 226 418 l 365 418 l 365 556 l 506 556 l 506 697 l 644 697 l 644 833 l 89 833 l 89 974 l 1061 974 l 1061 697 l 921 697 l 921 556 l 783 556 l 783 418 l 644 418 l 644 278 l 506 278 l 506 142 l 1061 142 l 1061 0 m 436 1111 l 436 1247 l 574 1247 l 574 1388 l 853 1388 l 853 1247 l 713 1247 l 713 1111 l 436 1111 z "},"ź":{"ha":1150,"x_min":89,"x_max":1061,"o":"m 1061 0 l 89 0 l 89 278 l 226 278 l 226 418 l 365 418 l 365 556 l 506 556 l 506 697 l 644 697 l 644 833 l 89 833 l 89 974 l 1061 974 l 1061 697 l 921 697 l 921 556 l 783 556 l 783 418 l 644 418 l 644 278 l 506 278 l 506 142 l 1061 142 l 1061 0 m 436 1111 l 436 1247 l 574 1247 l 574 1388 l 853 1388 l 853 1247 l 713 1247 l 713 1111 l 436 1111 z "},"Ż":{"ha":1150,"x_min":89,"x_max":1061,"o":"m 1061 0 l 89 0 l 89 278 l 226 278 l 226 418 l 365 418 l 365 556 l 506 556 l 506 697 l 644 697 l 644 833 l 89 833 l 89 974 l 1061 974 l 1061 697 l 921 697 l 921 556 l 783 556 l 783 418 l 644 418 l 644 278 l 506 278 l 506 142 l 1061 142 l 1061 0 m 450 1388 l 729 1388 l 729 1111 l 450 1111 l 450 1388 z "},"ż":{"ha":1150,"x_min":89,"x_max":1061,"o":"m 1061 0 l 89 0 l 89 278 l 226 278 l 226 418 l 365 418 l 365 556 l 506 556 l 506 697 l 644 697 l 644 833 l 89 833 l 89 974 l 1061 974 l 1061 697 l 921 697 l 921 556 l 783 556 l 783 418 l 644 418 l 644 278 l 506 278 l 506 142 l 1061 142 l 1061 0 m 450 1388 l 729 1388 l 729 1111 l 450 1111 l 450 1388 z "},"Ž":{"ha":1150,"x_min":89,"x_max":1061,"o":"m 1061 0 l 89 0 l 89 278 l 226 278 l 226 418 l 365 418 l 365 556 l 506 556 l 506 697 l 644 697 l 644 833 l 89 833 l 89 974 l 1061 974 l 1061 697 l 921 697 l 921 556 l 783 556 l 783 418 l 644 418 l 644 278 l 506 278 l 506 142 l 1061 142 l 1061 0 m 922 1388 l 922 1250 l 785 1250 l 785 1111 l 367 1111 l 367 1250 l 229 1250 l 229 1388 l 506 1388 l 506 1250 l 646 1250 l 646 1388 l 922 1388 z "},"ž":{"ha":1150,"x_min":89,"x_max":1061,"o":"m 1061 0 l 89 0 l 89 278 l 226 278 l 226 418 l 365 418 l 365 556 l 506 556 l 506 697 l 644 697 l 644 833 l 89 833 l 89 974 l 1061 974 l 1061 697 l 921 697 l 921 556 l 783 556 l 783 418 l 644 418 l 644 278 l 506 278 l 506 142 l 1061 142 l 1061 0 m 922 1388 l 922 1250 l 785 1250 l 785 1111 l 367 1111 l 367 1250 l 229 1250 l 229 1388 l 506 1388 l 506 1250 l 646 1250 l 646 1388 l 922 1388 z "},"ƒ":{"ha":1150,"x_min":297,"x_max":851,"o":"m 851 418 l 714 418 l 714 -135 l 574 -135 l 574 -276 l 297 -276 l 297 -135 l 435 -135 l 435 418 l 297 418 l 297 558 l 435 558 l 435 974 l 575 974 l 575 1114 l 851 1114 l 851 974 l 714 974 l 714 558 l 851 558 l 851 418 z "},"Ș":{"ha":1150,"x_min":89,"x_max":1061,"o":"m 367 -276 l 367 -140 l 504 -140 l 504 0 l 225 0 l 225 142 l 89 142 l 89 278 l 365 278 l 365 142 l 782 142 l 782 418 l 225 418 l 225 556 l 89 556 l 89 833 l 225 833 l 225 974 l 782 974 l 782 833 l 921 833 l 921 697 l 644 697 l 644 833 l 365 833 l 365 556 l 921 556 l 921 418 l 1061 418 l 1061 142 l 921 142 l 921 0 l 783 0 l 783 -140 l 643 -140 l 643 -276 l 367 -276 z "},"ș":{"ha":1150,"x_min":89,"x_max":1061,"o":"m 367 -276 l 367 -140 l 504 -140 l 504 0 l 225 0 l 225 142 l 89 142 l 89 278 l 365 278 l 365 142 l 782 142 l 782 418 l 225 418 l 225 556 l 89 556 l 89 833 l 225 833 l 225 974 l 782 974 l 782 833 l 921 833 l 921 697 l 644 697 l 644 833 l 365 833 l 365 556 l 921 556 l 921 418 l 1061 418 l 1061 142 l 921 142 l 921 0 l 783 0 l 783 -140 l 643 -140 l 643 -276 l 367 -276 z "},"Ț":{"ha":1150,"x_min":157,"x_max":992,"o":"m 299 -276 l 299 -140 l 436 -140 l 436 833 l 157 833 l 157 974 l 992 974 l 992 833 l 714 833 l 714 -140 l 575 -140 l 575 -276 l 299 -276 z "},"ț":{"ha":1150,"x_min":157,"x_max":992,"o":"m 299 -276 l 299 -140 l 436 -140 l 436 833 l 157 833 l 157 974 l 992 974 l 992 833 l 714 833 l 714 -140 l 575 -140 l 575 -276 l 299 -276 z "},"ˆ":{"ha":1150,"x_min":228,"x_max":921,"o":"m 228 1111 l 228 1247 l 365 1247 l 365 1388 l 783 1388 l 783 1247 l 921 1247 l 921 1111 l 644 1111 l 644 1247 l 504 1247 l 504 1111 l 228 1111 z "},"ˇ":{"ha":1150,"x_min":228,"x_max":921,"o":"m 921 1388 l 921 1250 l 783 1250 l 783 1111 l 365 1111 l 365 1250 l 228 1250 l 228 1388 l 504 1388 l 504 1250 l 644 1250 l 644 1388 l 921 1388 z "},"˘":{"ha":1150,"x_min":297,"x_max":853,"o":"m 853 1388 l 853 1111 l 297 1111 l 297 1388 l 438 1388 l 438 1250 l 714 1250 l 714 1388 l 853 1388 z "},"˙":{"ha":1150,"x_min":435,"x_max":714,"o":"m 435 1388 l 714 1388 l 714 1111 l 435 1111 l 435 1388 z "},"˚":{"ha":1150,"x_min":365,"x_max":785,"o":"m 785 974 l 365 974 l 365 1390 l 785 1390 l 785 974 m 644 1114 l 644 1250 l 506 1250 l 506 1114 l 644 1114 z "},"˛":{"ha":1150,"x_min":367,"x_max":783,"o":"m 367 -276 l 367 0 l 507 0 l 507 -140 l 783 -140 l 783 -276 l 367 -276 z "},"˜":{"ha":1150,"x_min":297,"x_max":853,"o":"m 297 1111 l 297 1247 l 438 1247 l 438 1388 l 576 1388 l 576 1247 l 438 1247 l 438 1111 l 297 1111 m 576 1111 l 576 1247 l 714 1247 l 714 1388 l 853 1388 l 853 1247 l 714 1247 l 714 1111 l 576 1111 z "},"˝":{"ha":1150,"x_min":158,"x_max":992,"o":"m 158 1111 l 158 1247 l 296 1247 l 296 1388 l 575 1388 l 575 1247 l 435 1247 l 435 1111 l 158 1111 m 575 1111 l 575 1247 l 713 1247 l 713 1388 l 992 1388 l 992 1247 l 851 1247 l 851 1111 l 575 1111 z "},"Δ":{"ha":1150,"x_min":89,"x_max":1061,"o":"m 1061 0 l 89 0 l 89 697 l 226 697 l 226 833 l 365 833 l 365 974 l 782 974 l 782 833 l 922 833 l 922 697 l 1061 697 l 1061 0 m 782 140 l 782 697 l 646 697 l 646 833 l 506 833 l 506 697 l 376 697 l 376 140 l 782 140 z "},"Ω":{"ha":1150,"x_min":89,"x_max":1061,"o":"m 368 833 l 368 142 l 472 142 l 472 0 l 89 0 l 89 142 l 228 142 l 228 283 l 89 283 l 89 833 l 228 833 l 228 974 l 922 974 l 922 833 l 1061 833 l 1061 283 l 922 283 l 922 142 l 1061 142 l 1061 0 l 678 0 l 678 142 l 782 142 l 782 833 l 368 833 z "},"μ":{"ha":1150,"x_min":89,"x_max":1061,"o":"m 1061 0 l 365 0 l 365 -251 l 89 -251 l 89 694 l 365 694 l 365 138 l 782 138 l 782 694 l 1061 694 l 1061 0 z "},"π":{"ha":1150,"x_min":89,"x_max":1061,"o":"m 1061 0 l 782 0 l 782 557 l 365 557 l 365 0 l 89 0 l 89 694 l 1061 694 l 1061 0 z "},"Ẁ":{"ha":1150,"x_min":89,"x_max":1061,"o":"m 1061 0 l 782 0 l 782 142 l 644 142 l 644 278 l 506 278 l 506 142 l 365 142 l 365 0 l 89 0 l 89 974 l 365 974 l 365 556 l 506 556 l 506 697 l 644 697 l 644 556 l 782 556 l 782 974 l 1061 974 l 1061 0 m 453 1111 l 453 1247 l 313 1247 l 313 1388 l 592 1388 l 592 1247 l 729 1247 l 729 1111 l 453 1111 z "},"ẁ":{"ha":1150,"x_min":89,"x_max":1061,"o":"m 1061 0 l 782 0 l 782 142 l 644 142 l 644 278 l 506 278 l 506 142 l 365 142 l 365 0 l 89 0 l 89 974 l 365 974 l 365 556 l 506 556 l 506 697 l 644 697 l 644 556 l 782 556 l 782 974 l 1061 974 l 1061 0 m 453 1111 l 453 1247 l 313 1247 l 313 1388 l 592 1388 l 592 1247 l 729 1247 l 729 1111 l 453 1111 z "},"Ẃ":{"ha":1150,"x_min":89,"x_max":1061,"o":"m 1061 0 l 782 0 l 782 142 l 644 142 l 644 278 l 506 278 l 506 142 l 365 142 l 365 0 l 89 0 l 89 974 l 365 974 l 365 556 l 506 556 l 506 697 l 644 697 l 644 556 l 782 556 l 782 974 l 1061 974 l 1061 0 m 422 1111 l 422 1247 l 560 1247 l 560 1388 l 839 1388 l 839 1247 l 699 1247 l 699 1111 l 422 1111 z "},"ẃ":{"ha":1150,"x_min":89,"x_max":1061,"o":"m 1061 0 l 782 0 l 782 142 l 644 142 l 644 278 l 506 278 l 506 142 l 365 142 l 365 0 l 89 0 l 89 974 l 365 974 l 365 556 l 506 556 l 506 697 l 644 697 l 644 556 l 782 556 l 782 974 l 1061 974 l 1061 0 m 422 1111 l 422 1247 l 560 1247 l 560 1388 l 839 1388 l 839 1247 l 699 1247 l 699 1111 l 422 1111 z "},"Ẅ":{"ha":1150,"x_min":89,"x_max":1061,"o":"m 1061 0 l 782 0 l 782 142 l 644 142 l 644 278 l 506 278 l 506 142 l 365 142 l 365 0 l 89 0 l 89 974 l 365 974 l 365 556 l 506 556 l 506 697 l 644 697 l 644 556 l 782 556 l 782 974 l 1061 974 l 1061 0 m 922 1388 l 922 1111 l 643 1111 l 643 1388 l 922 1388 m 226 1388 l 506 1388 l 506 1111 l 226 1111 l 226 1388 z "},"ẅ":{"ha":1150,"x_min":89,"x_max":1061,"o":"m 1061 0 l 782 0 l 782 142 l 644 142 l 644 278 l 506 278 l 506 142 l 365 142 l 365 0 l 89 0 l 89 974 l 365 974 l 365 556 l 506 556 l 506 697 l 644 697 l 644 556 l 782 556 l 782 974 l 1061 974 l 1061 0 m 922 1388 l 922 1111 l 643 1111 l 643 1388 l 922 1388 m 226 1388 l 506 1388 l 506 1111 l 226 1111 l 226 1388 z "},"Ỳ":{"ha":1150,"x_min":158,"x_max":992,"o":"m 992 556 l 853 556 l 853 418 l 714 418 l 714 0 l 435 0 l 435 418 l 296 418 l 296 556 l 158 556 l 158 974 l 435 974 l 435 556 l 714 556 l 714 974 l 992 974 l 992 556 m 453 1111 l 453 1247 l 313 1247 l 313 1388 l 592 1388 l 592 1247 l 729 1247 l 729 1111 l 453 1111 z "},"ỳ":{"ha":1150,"x_min":158,"x_max":992,"o":"m 992 556 l 853 556 l 853 418 l 714 418 l 714 0 l 435 0 l 435 418 l 296 418 l 296 556 l 158 556 l 158 974 l 435 974 l 435 556 l 714 556 l 714 974 l 992 974 l 992 556 m 453 1111 l 453 1247 l 313 1247 l 313 1388 l 592 1388 l 592 1247 l 729 1247 l 729 1111 l 453 1111 z "},"–":{"ha":1150,"x_min":51,"x_max":1099,"o":"m 1099 418 l 51 418 l 51 558 l 1099 558 l 1099 418 z "},"—":{"ha":1150,"x_min":0,"x_max":1150,"o":"m 1150 418 l 0 418 l 0 558 l 1150 558 l 1150 418 z "},"‘":{"ha":1150,"x_min":436,"x_max":714,"o":"m 436 1097 l 575 1097 l 575 957 l 714 957 l 714 678 l 436 678 l 436 1097 m 575 1238 l 714 1238 l 714 1097 l 575 1097 l 575 1238 z "},"’":{"ha":1150,"x_min":436,"x_max":713,"o":"m 713 822 l 572 822 l 572 964 l 436 964 l 436 1240 l 713 1240 l 713 822 m 572 682 l 436 682 l 436 822 l 572 822 l 572 682 z "},"‚":{"ha":1150,"x_min":436,"x_max":713,"o":"m 713 -135 l 572 -135 l 572 7 l 436 7 l 436 283 l 713 283 l 713 -135 m 572 -275 l 436 -275 l 436 -135 l 572 -135 l 572 -275 z "},"“":{"ha":1150,"x_min":228,"x_max":922,"o":"m 228 1100 l 367 1100 l 367 960 l 506 960 l 506 682 l 228 682 l 228 1100 m 367 1242 l 506 1242 l 506 1100 l 367 1100 l 367 1242 m 644 1100 l 783 1100 l 783 960 l 922 960 l 922 682 l 644 682 l 644 1100 m 783 1242 l 922 1242 l 922 1100 l 783 1100 l 783 1242 z "},"”":{"ha":1150,"x_min":228,"x_max":921,"o":"m 921 822 l 781 822 l 781 964 l 644 964 l 644 1240 l 921 1240 l 921 822 m 781 682 l 644 682 l 644 822 l 781 822 l 781 682 m 504 822 l 364 822 l 364 964 l 228 964 l 228 1240 l 504 1240 l 504 822 m 364 682 l 228 682 l 228 822 l 364 822 l 364 682 z "},"„":{"ha":1150,"x_min":228,"x_max":921,"o":"m 921 -135 l 781 -135 l 781 7 l 644 7 l 644 283 l 921 283 l 921 -135 m 781 -275 l 644 -275 l 644 -135 l 781 -135 l 781 -275 m 504 -135 l 364 -135 l 364 7 l 228 7 l 228 283 l 504 283 l 504 -135 m 364 -275 l 228 -275 l 228 -135 l 364 -135 l 364 -275 z "},"†":{"ha":1150,"x_min":224,"x_max":925,"o":"m 647 0 l 503 0 l 503 693 l 224 693 l 224 833 l 503 833 l 503 974 l 647 974 l 647 833 l 925 833 l 925 693 l 647 693 l 647 0 z "},"‡":{"ha":1150,"x_min":224,"x_max":925,"o":"m 925 140 l 647 140 l 647 0 l 503 0 l 503 140 l 224 140 l 224 281 l 503 281 l 503 693 l 224 693 l 224 833 l 503 833 l 503 974 l 647 974 l 647 833 l 925 833 l 925 693 l 647 693 l 647 281 l 925 281 l 925 140 z "},"•":{"ha":1150,"x_min":367,"x_max":783,"o":"m 783 278 l 367 278 l 367 696 l 783 696 l 783 278 z "},"…":{"ha":1150,"x_min":68,"x_max":1086,"o":"m 254 0 l 68 0 l 68 278 l 254 278 l 254 0 m 669 0 l 485 0 l 485 278 l 669 278 l 669 0 m 1086 0 l 900 0 l 900 278 l 1086 278 l 1086 0 z "},"‰":{"ha":1150,"x_min":13,"x_max":1138,"o":"m 324 582 l 279 582 l 279 510 l 236 510 l 236 433 l 99 433 l 99 510 l 56 510 l 56 582 l 13 582 l 13 824 l 56 824 l 56 897 l 99 897 l 99 974 l 236 974 l 236 897 l 279 897 l 279 824 l 324 824 l 324 582 m 229 525 l 229 808 l 186 808 l 186 881 l 108 881 l 108 599 l 151 599 l 151 525 l 229 525 m 678 840 l 600 840 l 600 982 l 678 982 l 678 840 m 600 700 l 521 700 l 521 840 l 600 840 l 600 700 m 521 558 l 442 558 l 442 700 l 521 700 l 521 558 m 442 418 l 363 418 l 363 558 l 442 558 l 442 418 m 363 276 l 282 276 l 282 418 l 363 418 l 363 276 m 282 138 l 201 138 l 201 276 l 282 276 l 282 138 m 201 -4 l 124 -4 l 124 138 l 201 138 l 201 -4 m 785 149 l 742 149 l 742 76 l 700 76 l 700 0 l 560 0 l 560 76 l 518 76 l 518 149 l 475 149 l 475 390 l 518 390 l 518 464 l 560 464 l 560 540 l 700 540 l 700 464 l 742 464 l 742 390 l 785 390 l 785 149 m 690 92 l 690 375 l 649 375 l 649 447 l 571 447 l 571 165 l 614 165 l 614 92 l 690 92 m 1138 149 l 1096 149 l 1096 76 l 1051 76 l 1051 0 l 914 0 l 914 76 l 871 76 l 871 149 l 828 149 l 828 390 l 871 390 l 871 464 l 914 464 l 914 540 l 1051 540 l 1051 464 l 1096 464 l 1096 390 l 1138 390 l 1138 149 m 1042 92 l 1042 375 l 1000 375 l 1000 447 l 922 447 l 922 165 l 965 165 l 965 92 l 1042 92 z "},"‹":{"ha":1150,"x_min":367,"x_max":783,"o":"m 506 278 l 506 418 l 367 418 l 367 556 l 506 556 l 506 697 l 783 697 l 783 556 l 646 556 l 646 418 l 783 418 l 783 278 l 506 278 z "},"›":{"ha":1150,"x_min":367,"x_max":783,"o":"m 367 278 l 367 418 l 504 418 l 504 556 l 367 556 l 367 697 l 644 697 l 644 556 l 783 556 l 783 418 l 644 418 l 644 278 l 367 278 z "},"⁄":{"ha":1150,"x_min":93,"x_max":1057,"o":"m 1057 840 l 918 840 l 918 982 l 1057 982 l 1057 840 m 918 700 l 782 700 l 782 840 l 918 840 l 918 700 m 782 558 l 643 558 l 643 700 l 782 700 l 782 558 m 643 418 l 507 418 l 507 558 l 643 558 l 643 418 m 507 276 l 368 276 l 368 418 l 507 418 l 507 276 m 368 138 l 229 138 l 229 276 l 368 276 l 368 138 m 229 -4 l 93 -4 l 93 138 l 229 138 l 229 -4 z "},"⁰":{"ha":1150,"x_min":306,"x_max":844,"o":"m 844 582 l 769 582 l 769 510 l 694 510 l 694 433 l 454 433 l 454 510 l 381 510 l 381 582 l 306 582 l 306 824 l 381 824 l 381 897 l 454 897 l 454 974 l 694 974 l 694 897 l 769 897 l 769 824 l 844 824 l 844 582 m 679 525 l 679 808 l 606 808 l 606 881 l 471 881 l 471 599 l 546 599 l 546 525 l 679 525 z "},"⁴":{"ha":1150,"x_min":306,"x_max":844,"o":"m 844 582 l 769 582 l 769 433 l 604 433 l 604 582 l 306 582 l 306 749 l 379 749 l 379 824 l 454 824 l 454 897 l 529 897 l 529 974 l 769 974 l 769 675 l 844 675 l 844 582 m 604 675 l 604 808 l 546 808 l 546 732 l 469 732 l 469 675 l 604 675 z "},"⁵":{"ha":1150,"x_min":304,"x_max":844,"o":"m 844 510 l 768 510 l 768 433 l 379 433 l 379 510 l 304 510 l 304 599 l 469 599 l 469 525 l 678 525 l 678 732 l 304 732 l 304 974 l 768 974 l 768 881 l 469 881 l 469 824 l 768 824 l 768 749 l 844 749 l 844 510 z "},"⁶":{"ha":1150,"x_min":306,"x_max":844,"o":"m 844 510 l 769 510 l 769 433 l 381 433 l 381 510 l 306 510 l 306 824 l 381 824 l 381 899 l 454 899 l 454 974 l 769 974 l 769 882 l 546 882 l 546 808 l 471 808 l 471 749 l 769 749 l 769 675 l 844 675 l 844 510 m 679 525 l 679 658 l 471 658 l 471 525 l 679 525 z "},"⁷":{"ha":1150,"x_min":306,"x_max":844,"o":"m 844 808 l 769 808 l 769 732 l 694 732 l 694 658 l 621 658 l 621 433 l 456 433 l 456 675 l 529 675 l 529 749 l 604 749 l 604 824 l 679 824 l 679 881 l 471 881 l 471 808 l 306 808 l 306 974 l 844 974 l 844 808 z "},"⁸":{"ha":1150,"x_min":306,"x_max":844,"o":"m 381 732 l 306 732 l 306 897 l 381 897 l 381 974 l 694 974 l 694 897 l 769 897 l 769 732 l 694 732 l 694 675 l 844 675 l 844 510 l 769 510 l 769 433 l 381 433 l 381 510 l 306 510 l 306 675 l 381 675 l 381 732 m 546 749 l 679 749 l 679 881 l 471 881 l 471 824 l 546 824 l 546 749 m 396 525 l 679 525 l 679 582 l 529 582 l 529 658 l 396 658 l 396 525 z "},"⁹":{"ha":1150,"x_min":306,"x_max":844,"o":"m 844 582 l 769 582 l 769 508 l 693 508 l 693 433 l 379 433 l 379 524 l 604 524 l 604 597 l 678 597 l 678 658 l 379 658 l 379 732 l 306 732 l 306 897 l 379 897 l 379 974 l 769 974 l 769 897 l 844 897 l 844 582 m 678 749 l 678 881 l 469 881 l 469 749 l 678 749 z "},"₀":{"ha":1150,"x_min":306,"x_max":844,"o":"m 844 149 l 769 149 l 769 76 l 694 76 l 694 0 l 454 0 l 454 76 l 381 76 l 381 149 l 306 149 l 306 390 l 381 390 l 381 464 l 454 464 l 454 540 l 694 540 l 694 464 l 769 464 l 769 390 l 844 390 l 844 149 m 679 92 l 679 375 l 606 375 l 606 447 l 471 447 l 471 165 l 546 165 l 546 92 l 679 92 z "},"₁":{"ha":1150,"x_min":343,"x_max":807,"o":"m 807 0 l 343 0 l 343 92 l 492 92 l 492 375 l 417 375 l 417 465 l 492 465 l 492 540 l 657 540 l 657 92 l 807 92 l 807 0 z "},"₂":{"ha":1150,"x_min":306,"x_max":844,"o":"m 844 0 l 306 0 l 306 165 l 381 165 l 381 242 l 454 242 l 454 315 l 604 315 l 604 390 l 679 390 l 679 447 l 471 447 l 471 375 l 306 375 l 306 464 l 381 464 l 381 540 l 769 540 l 769 464 l 844 464 l 844 299 l 769 299 l 769 225 l 694 225 l 694 149 l 546 149 l 546 92 l 844 92 l 844 0 z "},"₃":{"ha":1150,"x_min":306,"x_max":844,"o":"m 844 76 l 768 76 l 768 0 l 378 0 l 378 76 l 306 76 l 306 165 l 469 165 l 469 92 l 678 92 l 678 225 l 454 225 l 454 315 l 529 315 l 529 390 l 604 390 l 604 447 l 378 447 l 378 540 l 844 540 l 844 447 l 768 447 l 768 375 l 693 375 l 693 315 l 768 315 l 768 242 l 844 242 l 844 76 z "},"₄":{"ha":1150,"x_min":306,"x_max":844,"o":"m 844 149 l 769 149 l 769 0 l 604 0 l 604 149 l 306 149 l 306 315 l 379 315 l 379 390 l 454 390 l 454 464 l 529 464 l 529 540 l 769 540 l 769 242 l 844 242 l 844 149 m 604 242 l 604 375 l 546 375 l 546 299 l 469 299 l 469 242 l 604 242 z "},"₅":{"ha":1150,"x_min":304,"x_max":844,"o":"m 844 76 l 768 76 l 768 0 l 379 0 l 379 76 l 304 76 l 304 165 l 469 165 l 469 92 l 678 92 l 678 299 l 304 299 l 304 540 l 768 540 l 768 447 l 469 447 l 469 390 l 768 390 l 768 315 l 844 315 l 844 76 z "},"₆":{"ha":1150,"x_min":306,"x_max":844,"o":"m 844 76 l 769 76 l 769 0 l 381 0 l 381 76 l 306 76 l 306 390 l 381 390 l 381 465 l 454 465 l 454 540 l 769 540 l 769 449 l 546 449 l 546 375 l 471 375 l 471 315 l 769 315 l 769 242 l 844 242 l 844 76 m 679 92 l 679 225 l 471 225 l 471 92 l 679 92 z "},"₇":{"ha":1150,"x_min":306,"x_max":844,"o":"m 844 375 l 769 375 l 769 299 l 694 299 l 694 225 l 621 225 l 621 0 l 456 0 l 456 242 l 529 242 l 529 315 l 604 315 l 604 390 l 679 390 l 679 447 l 471 447 l 471 375 l 306 375 l 306 540 l 844 540 l 844 375 z "},"₈":{"ha":1150,"x_min":306,"x_max":844,"o":"m 381 299 l 306 299 l 306 464 l 381 464 l 381 540 l 694 540 l 694 464 l 769 464 l 769 299 l 694 299 l 694 242 l 844 242 l 844 76 l 769 76 l 769 0 l 381 0 l 381 76 l 306 76 l 306 242 l 381 242 l 381 299 m 546 315 l 679 315 l 679 447 l 471 447 l 471 390 l 546 390 l 546 315 m 396 92 l 679 92 l 679 149 l 529 149 l 529 225 l 396 225 l 396 92 z "},"₉":{"ha":1150,"x_min":306,"x_max":844,"o":"m 844 149 l 769 149 l 769 75 l 693 75 l 693 0 l 379 0 l 379 90 l 604 90 l 604 164 l 678 164 l 678 225 l 379 225 l 379 299 l 306 299 l 306 464 l 379 464 l 379 540 l 769 540 l 769 464 l 844 464 l 844 149 m 678 315 l 678 447 l 469 447 l 469 315 l 678 315 z "},"€":{"ha":1150,"x_min":104,"x_max":1017,"o":"m 897 364 l 458 364 l 458 278 l 597 278 l 597 142 l 1015 142 l 1015 0 l 458 0 l 458 142 l 319 142 l 319 278 l 181 278 l 181 364 l 104 364 l 104 461 l 181 461 l 181 508 l 104 508 l 104 606 l 181 606 l 181 697 l 319 697 l 319 833 l 458 833 l 458 974 l 1015 974 l 1015 833 l 597 833 l 597 697 l 458 697 l 458 606 l 1017 606 l 1017 508 l 458 508 l 458 461 l 897 461 l 897 364 z "},"₹":{"ha":1150,"x_min":158,"x_max":990,"o":"m 990 556 l 851 556 l 851 418 l 711 418 l 711 278 l 851 278 l 851 142 l 990 142 l 990 0 l 574 0 l 574 142 l 435 142 l 435 278 l 294 278 l 294 418 l 574 418 l 574 556 l 158 556 l 158 697 l 711 697 l 711 832 l 158 832 l 158 974 l 990 974 l 990 832 l 851 832 l 851 697 l 990 697 l 990 556 z "},"℗":{"ha":1150,"x_min":158,"x_max":990,"o":"m 990 142 l 851 142 l 851 833 l 294 833 l 294 974 l 851 974 l 851 833 l 990 833 l 990 142 m 735 425 l 522 425 l 522 214 l 415 214 l 415 746 l 735 746 l 735 425 m 158 142 l 158 833 l 294 833 l 294 142 l 158 142 m 294 142 l 851 142 l 851 0 l 294 0 l 294 142 m 628 533 l 628 640 l 522 640 l 522 533 l 628 533 z "},"™":{"ha":1150,"x_min":97,"x_max":1053,"o":"m 486 908 l 356 908 l 356 521 l 226 521 l 226 908 l 97 908 l 97 974 l 486 974 l 486 908 m 1053 521 l 924 521 l 924 715 l 860 715 l 860 650 l 794 650 l 794 715 l 729 715 l 729 521 l 600 521 l 600 974 l 729 974 l 729 908 l 794 908 l 794 844 l 860 844 l 860 908 l 924 908 l 924 974 l 1053 974 l 1053 521 z "},"⅓":{"ha":1150,"x_min":83,"x_max":1065,"o":"m 381 433 l 83 433 l 83 525 l 178 525 l 178 808 l 131 808 l 131 899 l 178 899 l 178 974 l 283 974 l 283 525 l 381 525 l 381 433 m 861 840 l 772 840 l 772 982 l 861 982 l 861 840 m 772 700 l 686 700 l 686 840 l 772 840 l 772 700 m 686 558 l 597 558 l 597 700 l 686 700 l 686 558 m 597 418 l 510 418 l 510 558 l 597 558 l 597 418 m 510 276 l 421 276 l 421 418 l 510 418 l 510 276 m 421 138 l 332 138 l 332 276 l 421 276 l 421 138 m 332 -4 l 244 -4 l 244 138 l 332 138 l 332 -4 m 1065 76 l 1017 76 l 1017 0 l 767 0 l 767 76 l 719 76 l 719 165 l 825 165 l 825 92 l 958 92 l 958 225 l 815 225 l 815 315 l 864 315 l 864 390 l 911 390 l 911 447 l 767 447 l 767 540 l 1065 540 l 1065 447 l 1017 447 l 1017 375 l 968 375 l 968 315 l 1017 315 l 1017 242 l 1065 242 l 1065 76 z "},"⅔":{"ha":1150,"x_min":57,"x_max":1092,"o":"m 403 433 l 57 433 l 57 599 l 106 599 l 106 675 l 153 675 l 153 749 l 247 749 l 247 824 l 297 824 l 297 881 l 164 881 l 164 808 l 57 808 l 57 897 l 106 897 l 106 974 l 354 974 l 354 897 l 403 897 l 403 732 l 354 732 l 354 658 l 306 658 l 306 582 l 211 582 l 211 525 l 403 525 l 403 433 m 888 840 l 799 840 l 799 982 l 888 982 l 888 840 m 799 700 l 711 700 l 711 840 l 799 840 l 799 700 m 711 558 l 622 558 l 622 700 l 711 700 l 711 558 m 622 418 l 536 418 l 536 558 l 622 558 l 622 418 m 536 276 l 447 276 l 447 418 l 536 418 l 536 276 m 447 138 l 358 138 l 358 276 l 447 276 l 447 138 m 358 -4 l 269 -4 l 269 138 l 358 138 l 358 -4 m 1092 76 l 1042 76 l 1042 0 l 792 0 l 792 76 l 746 76 l 746 165 l 851 165 l 851 92 l 985 92 l 985 225 l 842 225 l 842 315 l 889 315 l 889 390 l 936 390 l 936 447 l 792 447 l 792 540 l 1092 540 l 1092 447 l 1042 447 l 1042 375 l 994 375 l 994 315 l 1042 315 l 1042 242 l 1092 242 l 1092 76 z "},"⅛":{"ha":1150,"x_min":81,"x_max":1069,"o":"m 378 433 l 81 433 l 81 525 l 176 525 l 176 808 l 128 808 l 128 899 l 176 899 l 176 974 l 282 974 l 282 525 l 378 525 l 378 433 m 860 840 l 771 840 l 771 982 l 860 982 l 860 840 m 771 700 l 683 700 l 683 840 l 771 840 l 771 700 m 683 558 l 594 558 l 594 700 l 683 700 l 683 558 m 594 418 l 507 418 l 507 558 l 594 558 l 594 418 m 507 276 l 418 276 l 418 418 l 507 418 l 507 276 m 418 138 l 329 138 l 329 276 l 418 276 l 418 138 m 329 -4 l 243 -4 l 243 138 l 329 138 l 329 -4 m 772 299 l 725 299 l 725 464 l 772 464 l 772 540 l 974 540 l 974 464 l 1021 464 l 1021 299 l 974 299 l 974 242 l 1069 242 l 1069 76 l 1021 76 l 1021 0 l 772 0 l 772 76 l 725 76 l 725 242 l 772 242 l 772 299 m 878 315 l 964 315 l 964 447 l 831 447 l 831 390 l 878 390 l 878 315 m 782 92 l 964 92 l 964 149 l 867 149 l 867 225 l 782 225 l 782 92 z "},"⅜":{"ha":1150,"x_min":54,"x_max":1096,"o":"m 400 510 l 351 510 l 351 433 l 101 433 l 101 510 l 54 510 l 54 599 l 160 599 l 160 525 l 293 525 l 293 658 l 150 658 l 150 749 l 199 749 l 199 824 l 246 824 l 246 881 l 101 881 l 101 974 l 400 974 l 400 881 l 351 881 l 351 808 l 303 808 l 303 749 l 351 749 l 351 675 l 400 675 l 400 510 m 886 840 l 797 840 l 797 982 l 886 982 l 886 840 m 797 700 l 710 700 l 710 840 l 797 840 l 797 700 m 710 558 l 621 558 l 621 700 l 710 700 l 710 558 m 621 418 l 533 418 l 533 558 l 621 558 l 621 418 m 533 276 l 444 276 l 444 418 l 533 418 l 533 276 m 444 138 l 356 138 l 356 276 l 444 276 l 444 138 m 356 -4 l 269 -4 l 269 138 l 356 138 l 356 -4 m 799 299 l 751 299 l 751 464 l 799 464 l 799 540 l 1000 540 l 1000 464 l 1049 464 l 1049 299 l 1000 299 l 1000 242 l 1096 242 l 1096 76 l 1049 76 l 1049 0 l 799 0 l 799 76 l 751 76 l 751 242 l 799 242 l 799 299 m 904 315 l 990 315 l 990 447 l 857 447 l 857 390 l 904 390 l 904 315 m 810 92 l 990 92 l 990 149 l 893 149 l 893 225 l 810 225 l 810 92 z "},"⅝":{"ha":1150,"x_min":56,"x_max":1093,"o":"m 401 510 l 353 510 l 353 433 l 104 433 l 104 510 l 56 510 l 56 599 l 161 599 l 161 525 l 294 525 l 294 732 l 56 732 l 56 974 l 353 974 l 353 881 l 161 881 l 161 824 l 353 824 l 353 749 l 401 749 l 401 510 m 885 840 l 796 840 l 796 982 l 885 982 l 885 840 m 796 700 l 708 700 l 708 840 l 796 840 l 796 700 m 708 558 l 619 558 l 619 700 l 708 700 l 708 558 m 619 418 l 532 418 l 532 558 l 619 558 l 619 418 m 532 276 l 443 276 l 443 418 l 532 418 l 532 276 m 443 138 l 354 138 l 354 276 l 443 276 l 443 138 m 354 -4 l 267 -4 l 267 138 l 354 138 l 354 -4 m 797 299 l 749 299 l 749 464 l 797 464 l 797 540 l 999 540 l 999 464 l 1046 464 l 1046 299 l 999 299 l 999 242 l 1093 242 l 1093 76 l 1046 76 l 1046 0 l 797 0 l 797 76 l 749 76 l 749 242 l 797 242 l 797 299 m 903 315 l 988 315 l 988 447 l 854 447 l 854 390 l 903 390 l 903 315 m 807 92 l 988 92 l 988 149 l 893 149 l 893 225 l 807 225 l 807 92 z "},"⅞":{"ha":1150,"x_min":57,"x_max":1093,"o":"m 401 808 l 354 808 l 354 732 l 306 732 l 306 658 l 258 658 l 258 433 l 153 433 l 153 675 l 200 675 l 200 749 l 249 749 l 249 824 l 296 824 l 296 881 l 163 881 l 163 808 l 57 808 l 57 974 l 401 974 l 401 808 m 885 840 l 796 840 l 796 982 l 885 982 l 885 840 m 796 700 l 708 700 l 708 840 l 796 840 l 796 700 m 708 558 l 619 558 l 619 700 l 708 700 l 708 558 m 619 418 l 532 418 l 532 558 l 619 558 l 619 418 m 532 276 l 443 276 l 443 418 l 532 418 l 532 276 m 443 138 l 354 138 l 354 276 l 443 276 l 443 138 m 354 -4 l 267 -4 l 267 138 l 354 138 l 354 -4 m 797 299 l 749 299 l 749 464 l 797 464 l 797 540 l 999 540 l 999 464 l 1046 464 l 1046 299 l 999 299 l 999 242 l 1093 242 l 1093 76 l 1046 76 l 1046 0 l 797 0 l 797 76 l 749 76 l 749 242 l 797 242 l 797 299 m 903 315 l 988 315 l 988 447 l 854 447 l 854 390 l 903 390 l 903 315 m 807 92 l 988 92 l 988 149 l 893 149 l 893 225 l 807 225 l 807 92 z "},"∂":{"ha":1150,"x_min":89,"x_max":1061,"o":"m 783 142 l 783 418 l 368 418 l 368 142 l 783 142 m 89 418 l 228 418 l 228 556 l 783 556 l 783 697 l 644 697 l 644 835 l 228 835 l 228 974 l 783 974 l 783 835 l 924 835 l 924 696 l 1061 696 l 1061 142 l 924 142 l 924 0 l 228 0 l 228 142 l 89 142 l 89 418 z "},"∏":{"ha":1150,"x_min":89,"x_max":1061,"o":"m 1061 -276 l 782 -276 l 782 836 l 365 836 l 365 -276 l 89 -276 l 89 974 l 1061 974 l 1061 -276 z "},"∑":{"ha":1150,"x_min":161,"x_max":988,"o":"m 988 833 l 433 833 l 433 694 l 568 694 l 568 558 l 703 558 l 703 418 l 840 418 l 840 142 l 703 142 l 703 6 l 568 6 l 568 -135 l 974 -135 l 974 -276 l 161 -276 l 161 6 l 297 6 l 297 142 l 433 142 l 433 281 l 568 281 l 568 418 l 433 418 l 433 558 l 297 558 l 297 694 l 161 694 l 161 974 l 988 974 l 988 833 z "},"−":{"ha":1150,"x_min":158,"x_max":990,"o":"m 990 418 l 158 418 l 158 558 l 990 558 l 990 418 z "},"√":{"ha":1150,"x_min":164,"x_max":986,"o":"m 438 142 l 576 142 l 576 0 l 438 0 l 438 142 l 300 142 l 300 282 l 164 282 l 164 424 l 438 424 l 438 142 m 849 974 l 986 974 l 986 704 l 850 704 l 850 424 l 714 424 l 714 704 l 849 704 l 849 974 m 576 424 l 714 424 l 714 142 l 576 142 l 576 424 z "},"∞":{"ha":1150,"x_min":-189,"x_max":1339,"o":"m 1339 283 l 1200 283 l 1200 142 l 643 142 l 643 283 l 506 283 l 506 142 l -51 142 l -51 283 l -189 283 l -189 693 l -51 693 l -51 833 l 506 833 l 506 693 l 643 693 l 643 833 l 1200 833 l 1200 693 l 1339 693 l 1339 283 m 1060 283 l 1060 693 l 782 693 l 782 283 l 1060 283 m 365 283 l 365 693 l 88 693 l 88 283 l 365 283 z "},"∫":{"ha":1150,"x_min":297,"x_max":851,"o":"m 297 -135 l 435 -135 l 435 974 l 575 974 l 575 1114 l 851 1114 l 851 974 l 714 974 l 714 -135 l 574 -135 l 574 -276 l 297 -276 l 297 -135 z "},"≈":{"ha":1150,"x_min":158,"x_max":990,"o":"m 990 696 l 854 696 l 854 833 l 990 833 l 990 696 m 853 557 l 575 557 l 575 694 l 297 694 l 297 833 l 575 833 l 575 694 l 853 694 l 853 557 m 297 557 l 158 557 l 158 694 l 297 694 l 297 557 m 990 139 l 854 140 l 854 278 l 990 278 l 990 139 m 853 1 l 575 1 l 575 139 l 297 139 l 297 278 l 575 278 l 575 139 l 853 139 l 853 1 m 297 1 l 158 1 l 158 139 l 297 139 l 297 1 z "},"≠":{"ha":1150,"x_min":93,"x_max":1057,"o":"m 918 700 l 990 700 l 990 558 l 643 558 l 643 418 l 990 418 l 990 276 l 368 276 l 368 138 l 229 138 l 229 276 l 158 276 l 158 418 l 507 418 l 507 558 l 158 558 l 158 700 l 782 700 l 782 840 l 918 840 l 918 700 m 1057 840 l 918 840 l 918 982 l 1057 982 l 1057 840 m 229 -4 l 93 -4 l 93 138 l 229 138 l 229 -4 z "},"≤":{"ha":1150,"x_min":226,"x_max":924,"o":"m 924 -140 l 226 -140 l 226 0 l 924 0 l 924 -140 m 924 139 l 646 139 l 646 281 l 507 281 l 507 417 l 367 417 l 367 557 l 228 557 l 228 694 l 367 694 l 367 836 l 507 836 l 507 972 l 646 972 l 646 1113 l 924 1113 l 924 972 l 783 972 l 783 836 l 646 836 l 646 694 l 507 694 l 507 557 l 646 557 l 646 417 l 783 417 l 783 281 l 924 281 l 924 139 z "},"≥":{"ha":1150,"x_min":226,"x_max":924,"o":"m 226 0 l 924 0 l 924 -140 l 226 -140 l 226 0 m 226 281 l 367 281 l 367 417 l 504 417 l 504 557 l 643 557 l 643 694 l 504 694 l 504 836 l 367 836 l 367 972 l 226 972 l 226 1113 l 504 1113 l 504 972 l 643 972 l 643 836 l 783 836 l 783 694 l 922 694 l 922 557 l 783 557 l 783 417 l 643 417 l 643 281 l 504 281 l 504 139 l 226 139 l 226 281 z "},"█":{"ha":1150,"x_min":89,"x_max":1061,"o":"m 1061 0 l 89 0 l 89 974 l 1061 974 l 1061 0 z "},"◊":{"ha":1150,"x_min":226,"x_max":922,"o":"m 922 414 l 783 414 l 783 278 l 646 278 l 646 138 l 507 138 l 507 278 l 367 278 l 367 414 l 226 414 l 226 697 l 367 697 l 367 833 l 507 833 l 507 974 l 646 974 l 646 833 l 783 833 l 783 697 l 922 697 l 922 414 m 507 414 l 646 414 l 646 697 l 507 697 l 507 414 z "},"♥":{"ha":1150,"x_min":89,"x_max":1061,"o":"m 1061 556 l 922 556 l 922 418 l 782 418 l 782 278 l 644 278 l 644 142 l 506 142 l 506 278 l 365 278 l 365 418 l 226 418 l 226 556 l 89 556 l 89 833 l 226 833 l 226 974 l 506 974 l 506 833 l 644 833 l 644 974 l 922 974 l 922 833 l 1061 833 l 1061 556 z "},"":{"ha":1150,"x_min":89,"x_max":1061,"o":"m 1061 694 l 89 694 l 89 974 l 1061 974 l 1061 694 m 1061 279 l 89 279 l 89 558 l 1061 558 l 1061 279 z "},"":{"ha":1150,"x_min":436,"x_max":714,"o":"m 714 974 l 714 0 l 436 0 l 436 974 l 714 974 z "}}}
